<?xml version="1.0" encoding="UTF-8" standalone="no"?>
<!-- Created with Inkscape (http://www.inkscape.org/) -->

<svg
   xmlns:dc="http://purl.org/dc/elements/1.1/"
   xmlns:cc="http://creativecommons.org/ns#"
   xmlns:rdf="http://www.w3.org/1999/02/22-rdf-syntax-ns#"
   xmlns:svg="http://www.w3.org/2000/svg"
   xmlns="http://www.w3.org/2000/svg"
   xmlns:sodipodi="http://sodipodi.sourceforge.net/DTD/sodipodi-0.dtd"
   xmlns:inkscape="http://www.inkscape.org/namespaces/inkscape"
   sodipodi:docname="tree_15042015_7.svg"
   width="210mm"
   height="297mm"
   viewBox="0 0 744.09448819 1052.3622047"
   id="svg2"
   version="1.1"
   inkscape:version="0.91 r13725">
  <sodipodi:namedview
     id="base"
     pagecolor="#ffffff"
     bordercolor="#666666"
     borderopacity="1.0"
     inkscape:pageopacity="0.0"
     inkscape:pageshadow="2"
     inkscape:zoom="0.72883651"
     inkscape:cx="372.04724"
     inkscape:cy="526.1811"
     inkscape:document-units="px"
     inkscape:current-layer="layer1"
     showgrid="false"
     inkscape:window-width="1280"
     inkscape:window-height="968"
     inkscape:window-x="-4"
     inkscape:window-y="-4"
     inkscape:window-maximized="1"
     showguides="false" />
  <defs
     id="defs4">
    <inkscape:path-effect
       effect="powerstroke"
       id="path-effect6525"
       is_visible="true"
       offset_points="0,6.3568824"
       sort_points="true"
       interpolator_type="Linear"
       interpolator_beta="0.2"
       start_linecap_type="zerowidth"
       linejoin_type="round"
       miter_limit="4"
       end_linecap_type="zerowidth"
       cusp_linecap_type="round" />
    <inkscape:path-effect
       effect="powerstroke"
       id="path-effect6521"
       is_visible="true"
       offset_points="0.010972662,7.2552626"
       sort_points="true"
       interpolator_type="Linear"
       interpolator_beta="0.2"
       start_linecap_type="zerowidth"
       linejoin_type="round"
       miter_limit="4"
       end_linecap_type="zerowidth"
       cusp_linecap_type="round" />
    <inkscape:path-effect
       effect="powerstroke"
       id="path-effect6516"
       is_visible="true"
       offset_points="0,6.5679895"
       sort_points="true"
       interpolator_type="Linear"
       interpolator_beta="0.2"
       start_linecap_type="zerowidth"
       linejoin_type="round"
       miter_limit="4"
       end_linecap_type="zerowidth"
       cusp_linecap_type="round" />
    <inkscape:path-effect
       effect="powerstroke"
       id="path-effect6512"
       is_visible="true"
       offset_points="0,-7.5642102"
       sort_points="true"
       interpolator_type="Linear"
       interpolator_beta="0.2"
       start_linecap_type="zerowidth"
       linejoin_type="round"
       miter_limit="4"
       end_linecap_type="zerowidth"
       cusp_linecap_type="round" />
    <inkscape:path-effect
       cusp_linecap_type="round"
       end_linecap_type="zerowidth"
       miter_limit="4"
       linejoin_type="round"
       start_linecap_type="zerowidth"
       interpolator_beta="0.2"
       interpolator_type="Linear"
       sort_points="true"
       offset_points="0,5.4706216"
       is_visible="true"
       id="path-effect5985"
       effect="powerstroke" />
    <inkscape:path-effect
       effect="powerstroke"
       id="path-effect3478"
       is_visible="true"
       offset_points="0,5.9074047"
       sort_points="true"
       interpolator_type="Linear"
       interpolator_beta="0.2"
       start_linecap_type="zerowidth"
       linejoin_type="round"
       miter_limit="4"
       end_linecap_type="zerowidth"
       cusp_linecap_type="round" />
    <inkscape:path-effect
       effect="powerstroke"
       id="path-effect3474"
       is_visible="true"
       offset_points="0,-6.7775141"
       sort_points="true"
       interpolator_type="Linear"
       interpolator_beta="0.2"
       start_linecap_type="zerowidth"
       linejoin_type="round"
       miter_limit="4"
       end_linecap_type="zerowidth"
       cusp_linecap_type="round" />
    <inkscape:path-effect
       effect="powerstroke"
       id="path-effect3470"
       is_visible="true"
       offset_points="0,5.4706216"
       sort_points="true"
       interpolator_type="Linear"
       interpolator_beta="0.2"
       start_linecap_type="zerowidth"
       linejoin_type="round"
       miter_limit="4"
       end_linecap_type="zerowidth"
       cusp_linecap_type="round" />
    <inkscape:path-effect
       effect="powerstroke"
       id="path-effect3466"
       is_visible="true"
       offset_points="0,-7.3786346"
       sort_points="true"
       interpolator_type="Linear"
       interpolator_beta="0.2"
       start_linecap_type="zerowidth"
       linejoin_type="round"
       miter_limit="4"
       end_linecap_type="zerowidth"
       cusp_linecap_type="round" />
    <inkscape:path-effect
       effect="powerstroke"
       id="path-effect3462"
       is_visible="true"
       offset_points="0.02115919,-6.366871"
       sort_points="true"
       interpolator_type="Linear"
       interpolator_beta="0.2"
       start_linecap_type="zerowidth"
       linejoin_type="round"
       miter_limit="4"
       end_linecap_type="zerowidth"
       cusp_linecap_type="round" />
    <inkscape:path-effect
       effect="powerstroke"
       id="path-effect3458"
       is_visible="true"
       offset_points="0.0047969949,-3.6781594"
       sort_points="true"
       interpolator_type="Linear"
       interpolator_beta="0.2"
       start_linecap_type="zerowidth"
       linejoin_type="round"
       miter_limit="4"
       end_linecap_type="zerowidth"
       cusp_linecap_type="round" />
    <inkscape:path-effect
       effect="powerstroke"
       id="path-effect3454"
       is_visible="true"
       offset_points="0,4.5834098"
       sort_points="true"
       interpolator_type="Linear"
       interpolator_beta="0.2"
       start_linecap_type="zerowidth"
       linejoin_type="round"
       miter_limit="4"
       end_linecap_type="zerowidth"
       cusp_linecap_type="round" />
    <inkscape:path-effect
       effect="powerstroke"
       id="path-effect3450"
       is_visible="true"
       offset_points="0.012153128,5.7437065"
       sort_points="true"
       interpolator_type="Linear"
       interpolator_beta="0.2"
       start_linecap_type="zerowidth"
       linejoin_type="round"
       miter_limit="4"
       end_linecap_type="zerowidth"
       cusp_linecap_type="round" />
    <inkscape:path-effect
       effect="powerstroke"
       id="path-effect3446"
       is_visible="true"
       offset_points="0,-4.3752731"
       sort_points="true"
       interpolator_type="Linear"
       interpolator_beta="0.2"
       start_linecap_type="zerowidth"
       linejoin_type="round"
       miter_limit="4"
       end_linecap_type="zerowidth"
       cusp_linecap_type="round" />
    <inkscape:path-effect
       effect="powerstroke"
       id="path-effect3442"
       is_visible="true"
       offset_points="0,7.794948"
       sort_points="true"
       interpolator_type="Linear"
       interpolator_beta="0.2"
       start_linecap_type="zerowidth"
       linejoin_type="round"
       miter_limit="4"
       end_linecap_type="zerowidth"
       cusp_linecap_type="round" />
    <inkscape:path-effect
       effect="powerstroke"
       id="path-effect3438"
       is_visible="true"
       offset_points="0,7.0660087"
       sort_points="true"
       interpolator_type="Linear"
       interpolator_beta="0.2"
       start_linecap_type="zerowidth"
       linejoin_type="round"
       miter_limit="4"
       end_linecap_type="zerowidth"
       cusp_linecap_type="round" />
    <inkscape:path-effect
       effect="powerstroke"
       id="path-effect3434"
       is_visible="true"
       offset_points="0,14.853881"
       sort_points="true"
       interpolator_type="Linear"
       interpolator_beta="0.2"
       start_linecap_type="zerowidth"
       linejoin_type="round"
       miter_limit="4"
       end_linecap_type="zerowidth"
       cusp_linecap_type="round" />
    <inkscape:path-effect
       effect="powerstroke"
       id="path-effect3430"
       is_visible="true"
       offset_points="0,-10.508652"
       sort_points="true"
       interpolator_type="Linear"
       interpolator_beta="0.2"
       start_linecap_type="zerowidth"
       linejoin_type="round"
       miter_limit="4"
       end_linecap_type="zerowidth"
       cusp_linecap_type="round" />
    <inkscape:path-effect
       effect="powerstroke"
       id="path-effect3426"
       is_visible="true"
       offset_points="0,-9.1222595"
       sort_points="true"
       interpolator_type="Linear"
       interpolator_beta="0.2"
       start_linecap_type="zerowidth"
       linejoin_type="round"
       miter_limit="4"
       end_linecap_type="zerowidth"
       cusp_linecap_type="round" />
    <inkscape:path-effect
       effect="powerstroke"
       id="path-effect3422"
       is_visible="true"
       offset_points="0,11.359128"
       sort_points="true"
       interpolator_type="Linear"
       interpolator_beta="0.2"
       start_linecap_type="zerowidth"
       linejoin_type="round"
       miter_limit="4"
       end_linecap_type="zerowidth"
       cusp_linecap_type="round" />
    <inkscape:path-effect
       effect="powerstroke"
       id="path-effect3418"
       is_visible="true"
       offset_points="0.010953818,20.783203"
       sort_points="true"
       interpolator_type="Linear"
       interpolator_beta="0.2"
       start_linecap_type="zerowidth"
       linejoin_type="round"
       miter_limit="4"
       end_linecap_type="zerowidth"
       cusp_linecap_type="round" />
    <inkscape:path-effect
       effect="powerstroke"
       id="path-effect3414"
       is_visible="true"
       offset_points="0,-23.165981"
       sort_points="true"
       interpolator_type="Linear"
       interpolator_beta="0.2"
       start_linecap_type="zerowidth"
       linejoin_type="round"
       miter_limit="4"
       end_linecap_type="zerowidth"
       cusp_linecap_type="round" />
    <inkscape:path-effect
       effect="powerstroke"
       id="path-effect3410"
       is_visible="true"
       offset_points="0.046550675,41.512007"
       sort_points="true"
       interpolator_type="Linear"
       interpolator_beta="0.2"
       start_linecap_type="zerowidth"
       linejoin_type="round"
       miter_limit="4"
       end_linecap_type="zerowidth"
       cusp_linecap_type="round" />
    <inkscape:path-effect
       cusp_linecap_type="round"
       end_linecap_type="zerowidth"
       miter_limit="4"
       linejoin_type="round"
       start_linecap_type="zerowidth"
       interpolator_beta="0.2"
       interpolator_type="Linear"
       sort_points="true"
       offset_points="0,5.9074047"
       is_visible="true"
       id="path-effect3406"
       effect="powerstroke" />
    <inkscape:path-effect
       cusp_linecap_type="round"
       end_linecap_type="zerowidth"
       miter_limit="4"
       linejoin_type="round"
       start_linecap_type="zerowidth"
       interpolator_beta="0.2"
       interpolator_type="Linear"
       sort_points="true"
       offset_points="0,-6.7775141"
       is_visible="true"
       id="path-effect3402"
       effect="powerstroke" />
    <inkscape:path-effect
       cusp_linecap_type="round"
       end_linecap_type="zerowidth"
       miter_limit="4"
       linejoin_type="round"
       start_linecap_type="zerowidth"
       interpolator_beta="0.2"
       interpolator_type="Linear"
       sort_points="true"
       offset_points="0,5.4706216"
       is_visible="true"
       id="path-effect3398"
       effect="powerstroke" />
    <inkscape:path-effect
       cusp_linecap_type="round"
       end_linecap_type="zerowidth"
       miter_limit="4"
       linejoin_type="round"
       start_linecap_type="zerowidth"
       interpolator_beta="0.2"
       interpolator_type="Linear"
       sort_points="true"
       offset_points="0,-7.3786346"
       is_visible="true"
       id="path-effect3394"
       effect="powerstroke" />
    <inkscape:path-effect
       cusp_linecap_type="round"
       end_linecap_type="zerowidth"
       miter_limit="4"
       linejoin_type="round"
       start_linecap_type="zerowidth"
       interpolator_beta="0.2"
       interpolator_type="Linear"
       sort_points="true"
       offset_points="0.02115919,-6.366871"
       is_visible="true"
       id="path-effect3390"
       effect="powerstroke" />
    <inkscape:path-effect
       cusp_linecap_type="round"
       end_linecap_type="zerowidth"
       miter_limit="4"
       linejoin_type="round"
       start_linecap_type="zerowidth"
       interpolator_beta="0.2"
       interpolator_type="Linear"
       sort_points="true"
       offset_points="0.0047969949,-3.6781594"
       is_visible="true"
       id="path-effect3386"
       effect="powerstroke" />
    <inkscape:path-effect
       cusp_linecap_type="round"
       end_linecap_type="zerowidth"
       miter_limit="4"
       linejoin_type="round"
       start_linecap_type="zerowidth"
       interpolator_beta="0.2"
       interpolator_type="Linear"
       sort_points="true"
       offset_points="0,4.5834098"
       is_visible="true"
       id="path-effect3382"
       effect="powerstroke" />
    <inkscape:path-effect
       cusp_linecap_type="round"
       end_linecap_type="zerowidth"
       miter_limit="4"
       linejoin_type="round"
       start_linecap_type="zerowidth"
       interpolator_beta="0.2"
       interpolator_type="Linear"
       sort_points="true"
       offset_points="0.012153128,5.7437065"
       is_visible="true"
       id="path-effect3378"
       effect="powerstroke" />
    <inkscape:path-effect
       cusp_linecap_type="round"
       end_linecap_type="zerowidth"
       miter_limit="4"
       linejoin_type="round"
       start_linecap_type="zerowidth"
       interpolator_beta="0.2"
       interpolator_type="Linear"
       sort_points="true"
       offset_points="0,-4.3752731"
       is_visible="true"
       id="path-effect3374"
       effect="powerstroke" />
    <inkscape:path-effect
       cusp_linecap_type="round"
       end_linecap_type="zerowidth"
       miter_limit="4"
       linejoin_type="round"
       start_linecap_type="zerowidth"
       interpolator_beta="0.2"
       interpolator_type="Linear"
       sort_points="true"
       offset_points="0,7.794948"
       is_visible="true"
       id="path-effect3370"
       effect="powerstroke" />
    <inkscape:path-effect
       cusp_linecap_type="round"
       end_linecap_type="zerowidth"
       miter_limit="4"
       linejoin_type="round"
       start_linecap_type="zerowidth"
       interpolator_beta="0.2"
       interpolator_type="Linear"
       sort_points="true"
       offset_points="0,7.0660087"
       is_visible="true"
       id="path-effect3366"
       effect="powerstroke" />
    <inkscape:path-effect
       cusp_linecap_type="round"
       end_linecap_type="zerowidth"
       miter_limit="4"
       linejoin_type="round"
       start_linecap_type="zerowidth"
       interpolator_beta="0.2"
       interpolator_type="Linear"
       sort_points="true"
       offset_points="0,14.853881"
       is_visible="true"
       id="path-effect3362"
       effect="powerstroke" />
    <inkscape:path-effect
       cusp_linecap_type="round"
       end_linecap_type="zerowidth"
       miter_limit="4"
       linejoin_type="round"
       start_linecap_type="zerowidth"
       interpolator_beta="0.2"
       interpolator_type="Linear"
       sort_points="true"
       offset_points="0,-10.508652"
       is_visible="true"
       id="path-effect3358"
       effect="powerstroke" />
    <inkscape:path-effect
       cusp_linecap_type="round"
       end_linecap_type="zerowidth"
       miter_limit="4"
       linejoin_type="round"
       start_linecap_type="zerowidth"
       interpolator_beta="0.2"
       interpolator_type="Linear"
       sort_points="true"
       offset_points="0,-9.1222595"
       is_visible="true"
       id="path-effect3354"
       effect="powerstroke" />
    <inkscape:path-effect
       cusp_linecap_type="round"
       end_linecap_type="zerowidth"
       miter_limit="4"
       linejoin_type="round"
       start_linecap_type="zerowidth"
       interpolator_beta="0.2"
       interpolator_type="Linear"
       sort_points="true"
       offset_points="0,11.359128"
       is_visible="true"
       id="path-effect3350"
       effect="powerstroke" />
    <inkscape:path-effect
       cusp_linecap_type="round"
       end_linecap_type="zerowidth"
       miter_limit="4"
       linejoin_type="round"
       start_linecap_type="zerowidth"
       interpolator_beta="0.2"
       interpolator_type="Linear"
       sort_points="true"
       offset_points="0.010953818,20.783203"
       is_visible="true"
       id="path-effect3346"
       effect="powerstroke" />
    <inkscape:path-effect
       cusp_linecap_type="round"
       end_linecap_type="zerowidth"
       miter_limit="4"
       linejoin_type="round"
       start_linecap_type="zerowidth"
       interpolator_beta="0.2"
       interpolator_type="Linear"
       sort_points="true"
       offset_points="0,-23.165981"
       is_visible="true"
       id="path-effect3342"
       effect="powerstroke" />
    <inkscape:path-effect
       cusp_linecap_type="round"
       end_linecap_type="zerowidth"
       miter_limit="4"
       linejoin_type="round"
       start_linecap_type="zerowidth"
       interpolator_beta="0.2"
       interpolator_type="Linear"
       sort_points="true"
       offset_points="0.046550675,41.512007"
       is_visible="true"
       id="path-effect3338"
       effect="powerstroke" />
  </defs>
  <metadata
     id="metadata7">
    <rdf:RDF>
      <cc:Work
         rdf:about="">
        <dc:format>image/svg+xml</dc:format>
        <dc:type
           rdf:resource="http://purl.org/dc/dcmitype/StillImage" />
        <dc:title></dc:title>
      </cc:Work>
    </rdf:RDF>
  </metadata>
  <g
     id="layer1"
     inkscape:groupmode="layer"
     inkscape:label="Camada 1">
    <g
       id="g12311"
       transform="translate(-897.10281,0.05601236)">
      <path
         style="opacity:1;fill:#000000;fill-opacity:1;stroke:none;stroke-width:1;stroke-miterlimit:4;stroke-dasharray:none;stroke-opacity:1"
         d="m 1313.875,163.27344 c 13.5849,36.20106 15.3832,65.92276 10.5684,91.46875 -1.6762,8.89334 -4.1836,17.35708 -7.3144,25.51953 -11.375,-9.48249 -20.891,-19.75912 -28.0157,-31.30664 -8.273,-13.4089 -13.4642,-28.75038 -14.4218,-46.80469 -0.9574,18.05035 2.3255,34.36546 9.3574,49.51367 6.581,14.17694 16.3471,27.11219 28.5781,39.26172 -5.173,11.18756 -11.4541,21.85944 -18.3359,32.33008 -0.1344,0.20437 -0.261,0.39109 -0.3946,0.59375 -13.0747,-3.31455 -24.1357,-8.66067 -33.539,-15.66797 -10.1959,-7.59793 -18.5457,-17.22195 -25.3438,-28.43555 -13.6767,-22.55992 -20.5959,-50.74539 -24.041,-79.42773 0.3879,28.52814 4.2551,58.32662 15.9785,83.69726 3.233,6.99649 7.0942,13.71252 11.6856,20.00782 -17.093,1.24943 -31.6948,-3.3314 -45.3496,-11.42969 -16.2432,-9.63334 -30.6953,-23.92847 -45.9668,-38.32422 14.2378,15.10398 28.0723,30.55968 43.9785,41.43945 14.7261,10.07261 31.5876,16.47346 52.5722,14.92969 2.3866,2.77648 4.9392,5.44976 7.6719,8.00586 8.7944,8.22614 19.3703,15.16365 31.9805,20.35547 -11.4896,16.19982 -21.3384,28.35576 -35.6719,49.82812 -9.1986,13.78 -18.0934,28.66944 -25.5312,45.11133 -14.4772,-7.4683 -27.4532,-16.62598 -38.7696,-27.33007 6.5973,-12.01473 8.1479,-24.48937 7.334,-36.4336 -0.935,-13.72245 -5.0446,-27.63948 -9.1152,-40.69336 1.6744,13.89695 3.1205,27.66531 1.5527,40.52344 -1.2131,9.94957 -4.1738,18.72477 -9.6504,26.38086 -3.5727,-4.04639 -6.9498,-8.26493 -10.0976,-12.67383 -17.446,-24.43525 -28.328,-54.47497 -30.8086,-88.72266 -2.4717,34.12418 3.4233,66.94554 18.0527,96.32618 13.3408,26.79272 33.8728,50.5249 61.377,69.22461 -1.016,3.28459 -1.9781,6.61611 -2.8516,10.02148 -5.6318,23.06944 -6.0903,46.40701 -3.4824,69.51367 -16.3127,-6.00837 -31.5856,-14.59004 -45.7715,-25.43164 -11.5299,-8.81174 -22.2558,-19.0593 -32.1406,-30.46094 3.8095,-4.24136 6.6189,-8.81733 8.6172,-13.57031 2.7098,-6.44558 3.93,-13.15948 4.3066,-19.77734 0.7595,-13.34487 -1.8896,-27.4625 -3.9805,-39.88282 -0.3149,13.02996 -0.2102,26.59459 -3.2754,38.8086 -1.4796,5.89617 -3.6362,11.18476 -6.7207,15.76953 -2.0567,3.05723 -4.537,5.79392 -7.5097,8.2168 -5.0006,-6.43459 -9.7627,-13.16845 -14.2657,-20.17969 -12.8277,-19.97335 -23.4476,-41.88018 -31.7714,-64.55664 12.6092,-11.22211 23.5023,-25.1678 31.0605,-39.79883 7.78,-15.06045 11.9975,-30.77876 11.0078,-44.96094 -0.979,14.02996 -7.0699,28.66337 -16.0859,41.95117 -8.0727,11.89752 -18.5495,22.78835 -29.9766,31.31836 -9.7845,-29.6782 -15.697,-60.31879 -17.541,-89.39062 -2.8415,44.7968 3.9847,95.90502 21.3105,143.48828 -7.007,0.27426 -13.0778,-0.33389 -18.4238,-1.6875 -7.3894,-1.87101 -13.6889,-5.2085 -19.4004,-9.85352 -11.664,-9.48624 -20.1752,-23.77733 -30.1367,-40.01953 7.6942,16.78708 14.6003,33.08661 25.4707,44.93555 5.5536,6.05355 12.2749,11.11743 20.8477,14.57422 7.532,3.0371 16.3011,4.75263 26.6289,4.90234 2.689,6.5505 5.5731,13.01813 8.6777,19.36914 9.9348,20.32342 22.1197,39.69728 36.7031,57.08008 -11.5375,5.6649 -22.6565,9.07088 -33.5488,10.68946 -13.1427,1.95297 -26.087,1.33219 -39.1523,-1.13868 -26.3553,-4.98421 -52.1784,-17.26138 -79.92777,-29.67187 26.13727,14.50855 51.52457,29.54121 78.10547,37.25195 13.4111,3.89037 27.364,5.99941 42.127,5.19141 13.6924,-0.74942 27.9576,-4.00898 42.9628,-10.54688 1.7914,1.8701 3.6021,3.72286 5.4571,5.53321 20.7344,20.23509 45.6393,36.78677 74.9121,47.14062 0.6952,2.73683 1.4097,5.46803 2.1504,8.1875 10.0971,37.07185 27.3463,82.01313 37.3203,115.40625 5.4544,18.2613 9.626,35.40728 11.7969,51.66016 2.1671,16.22507 2.2376,30.8454 -0.033,44.20703 -1.8288,10.76066 -5.1953,20.83036 -10.3438,30.44726 -4.5575,8.51294 -50.9378,58.65177 -68.5644,76.90625 l 122.9589,0 c 8.3793,-14.24045 11.1952,-29.63644 17.2579,-44.38281 7.5989,-18.48309 11.5171,-37.02729 12.6777,-55.34375 1.4175,-22.37188 -1.2947,-44.09161 -6.0957,-64.69336 -4.7901,-20.55492 -11.8218,-40.66428 -19.4883,-59.88281 -9.1931,-23.04562 -18.1268,-42.5112 -26.6914,-61.75 24.5911,-5.80644 47.8583,-15.66062 69.0977,-28.4375 19.2437,-11.57644 36.9733,-25.63614 52.746,-41.45117 27.6893,12.51774 56.0986,14.68252 83.1387,10.40039 28.7758,-4.557 56.4331,-16.46772 80.8379,-31.54297 -25.6919,13.09701 -53.6485,22.42392 -81.6621,24.51562 -24.9153,1.86036 -49.4979,-2.02548 -72.5176,-13.69531 4.6725,-5.18068 9.1511,-10.51179 13.4024,-15.98828 13.9009,-17.90721 25.5059,-37.34195 34.3398,-57.62695 15.0442,-3.82052 27.5371,-13.66762 37.4258,-24.33594 10.8766,-11.73419 19.3243,-25.23018 25.041,-35.07813 -7.3147,8.95106 -17.0389,21.04928 -28.8359,31.13672 -8.9751,7.67446 -18.681,13.76154 -28.8926,16.61133 2.3426,-6.21788 4.4354,-12.49803 6.2383,-18.83008 8.9186,-31.32464 11.0021,-63.58943 4.9062,-94.67968 2.2567,31.51208 -3.8478,62.42674 -15.8242,90.84961 -8.6668,20.5685 -20.4704,39.94043 -34.5781,57.45117 -5.3142,-9.60922 -9.1213,-19.58399 -11.6328,-30.1211 -3.2219,-13.5171 -4.2926,-27.82463 -3.7754,-43.20703 -2.9508,15.01421 -4.4191,29.69116 -3.5274,44.27539 0.8216,13.43758 3.6601,26.86887 9.2207,40.42969 -2.4404,2.69098 -4.9316,5.3338 -7.4804,7.91602 -21.8585,22.14462 -47.4721,40.08331 -74.7422,52.25195 -0.3624,0.16171 -0.727,0.31305 -1.0899,0.47266 -2.8251,-8.62799 -4.0512,-18.82033 -3.0703,-28.56446 1.2174,-12.09407 5.8525,-23.75218 15.4766,-30.57812 -10.943,5.14158 -18.1494,16.23558 -21.7227,29.39843 -2.9531,10.87849 -3.3898,23.10212 -1.4902,34.16016 -19.2749,7.28243 -39.0178,11.59513 -58.5899,12.61133 -0.912,-2.36001 -1.8176,-4.74688 -2.7167,-7.16797 -9.827,-26.46051 -16.4505,-51.46742 -17.2481,-75.35742 18.4744,2.08339 35.4879,0.69427 50.9961,-3.26367 18.8856,-4.8199 35.4042,-13.39933 49.6523,-23.94532 28.3754,-21.00253 48.416,-50.30196 60.795,-75.47461 -15.583,23.71963 -37.8972,49.70301 -66.6231,66.72852 -9.2419,5.47762 -19.0667,9.97084 -29.459,13.18359 -1.9891,-11.22342 -1.6725,-20.37843 0.8164,-28.66015 2.8406,-9.45196 8.5485,-18.00667 16.9493,-27.13672 -9.7178,7.36682 -17.6534,14.88467 -22.9688,24.58789 -5.076,9.26614 -7.6369,20.27693 -7.1426,34.3457 -1.7284,0.34594 -3.4673,0.66446 -5.2246,0.9375 -14.5603,2.26241 -30.1986,1.98461 -46.9765,-1.59961 0.1091,-0.91985 0.2275,-1.83917 0.3574,-2.75586 3.4701,-26.41301 12.6104,-50.17997 24.4023,-74.06054 0.3345,-0.67733 0.7252,-1.42289 1.0723,-2.11524 29.6024,-5.82578 55.9313,-15.09556 78.6074,-27.83789 17.6241,7.53318 35.0468,8.30844 50.7988,4.14649 16.5991,-4.38576 31.344,-14.21674 43.0411,-27.41016 -13.2724,11.76707 -28.5993,19.12574 -44.2735,21.16406 -12.3846,1.61054 -24.9447,-0.10447 -37.1172,-5.49414 12.9317,-8.54234 24.4944,-18.36261 34.5821,-29.48828 30.6081,-33.75758 47.1055,-78.72998 48.9472,-134.73828 -5.6419,56.08129 -25.8554,97.82148 -57.0371,126.76562 -0.6963,0.64633 -1.4054,1.27987 -2.1133,1.91407 -7.4501,-15.06561 -12.1258,-32.53601 -13.2285,-49.46485 -1.2247,-18.80361 1.9381,-37.02297 10.6367,-50.44922 -9.9788,12.7096 -14.7889,30.93989 -14.998,50.56836 -0.1952,18.31946 3.6153,37.80658 10.9434,54.9961 -25.506,20.50762 -57.7371,33.91585 -95.8379,40.72851 8.2295,-15.19942 17.004,-31.13809 23.373,-44.45703 11.6809,-24.42702 20.6129,-49.61174 22.1563,-77.68945 0.3411,-6.20658 0.2963,-12.52392 -0.1289,-18.96484 16.6903,-5.79603 26.6723,-16.21482 33.6425,-28.30665 7.1332,-12.3745 11.4685,-27.10964 16.7344,-41.3125 -6.8092,13.92756 -12.3805,27.60474 -20.5801,38.81641 -7.4842,10.23351 -16.807,17.8747 -30.6484,21.73633 -2.4558,-19.96273 -8.7846,-41.25254 -20.1192,-64.66992 z"
         id="path5295"
         inkscape:connector-curvature="0" />
      <path
         inkscape:connector-curvature="0"
         id="path5297"
         d="m 1442.9734,567.92213 a 35.314712,35.073615 0 0 0 -11.8643,31.31495 35.314712,35.073615 0 0 0 20.0289,26.92823 35.314712,35.073615 0 0 0 11.8654,-31.31512 35.314712,35.073615 0 0 0 -20.03,-26.92806 z"
         style="opacity:1;fill:#1d2212;fill-opacity:1;stroke:none" />
      <path
         style="opacity:1;fill:#95988e;fill-opacity:1;stroke:none"
         d="m 1477.2448,569.51634 a 33.727121,33.727121 0 0 0 -4.5003,31.85773 33.727121,33.727121 0 0 0 24.3092,21.10657 33.727121,33.727121 0 0 0 4.5013,-31.85812 33.727121,33.727121 0 0 0 -24.3102,-21.10618 z"
         id="path5299"
         inkscape:connector-curvature="0" />
      <path
         inkscape:connector-curvature="0"
         id="path5301"
         d="m 1508.0743,564.77754 a 29.012952,29.012952 0 0 0 -0.4206,27.67372 29.012952,29.012952 0 0 0 23.0139,15.40459 29.012952,29.012952 0 0 0 0.4215,-27.67417 29.012952,29.012952 0 0 0 -23.0148,-15.40414 z"
         style="opacity:1;fill:#354e02;fill-opacity:1;stroke:none" />
      <path
         style="opacity:1;fill:#1e2c00;fill-opacity:1;stroke:none"
         d="m 1533.2616,557.33405 a 26.184451,26.184451 0 0 0 4.01,24.6547 26.184451,26.184451 0 0 0 22.888,10.04142 26.184451,26.184451 0 0 0 -4.0093,-24.65524 26.184451,26.184451 0 0 0 -22.8887,-10.04088 z"
         id="path5303"
         inkscape:connector-curvature="0" />
      <path
         inkscape:connector-curvature="0"
         id="path5305"
         d="m 1605.9953,508.82735 a 23.926831,23.926831 0 0 0 -22.5235,3.69756 23.926831,23.926831 0 0 0 -9.1447,20.92815 23.926831,23.926831 0 0 0 22.5241,-3.69692 23.926831,23.926831 0 0 0 9.1441,-20.92879 z"
         style="opacity:1;fill:#c9ea85;fill-opacity:1;stroke:none" />
      <path
         style="opacity:1;fill:#000000;fill-opacity:1;stroke:none"
         d="m 1446.1854,553.80003 a 37.498456,37.498456 0 0 1 -0.5437,-35.76754 37.498456,37.498456 0 0 1 29.7448,-19.91002 37.498456,37.498456 0 0 1 0.5448,35.76812 37.498456,37.498456 0 0 1 -29.7459,19.90944 z"
         id="path5307"
         inkscape:connector-curvature="0" />
      <path
         inkscape:connector-curvature="0"
         id="path5309"
         d="m 1483.2174,557.49143 a 33.727121,33.727121 0 0 1 -0.489,-32.17029 33.727121,33.727121 0 0 1 26.7533,-17.90761 33.727121,33.727121 0 0 1 0.49,32.17081 33.727121,33.727121 0 0 1 -26.7543,17.90709 z"
         style="opacity:1;fill:#808000;fill-opacity:1;stroke:none" />
      <path
         style="opacity:1;fill:#171f07;fill-opacity:1;stroke:none"
         d="m 1521.1046,552.00187 a 29.012952,29.012952 0 0 1 -0.4206,-27.67372 29.012952,29.012952 0 0 1 23.0139,-15.40459 29.012952,29.012952 0 0 1 0.4215,27.67417 29.012952,29.012952 0 0 1 -23.0148,15.40414 z"
         id="path5311"
         inkscape:connector-curvature="0" />
      <path
         inkscape:connector-curvature="0"
         id="path5313"
         d="m 1530.7894,412.68464 a 15.813279,15.813279 0 0 1 -0.2293,-15.08334 15.813279,15.813279 0 0 1 12.5436,-8.39615 15.813279,15.813279 0 0 1 0.2297,15.08359 15.813279,15.813279 0 0 1 -12.544,8.3959 z"
         style="opacity:1;fill:#182205;fill-opacity:1;stroke:none" />
      <path
         style="opacity:1;fill:#c7d1b3;fill-opacity:1;stroke:none"
         d="m 1493.843,459.02642 a 22.838402,22.838402 0 0 0 10.7422,18.95434 22.838402,22.838402 0 0 0 21.7619,1.28681 22.838402,22.838402 0 0 0 -10.7418,-18.95498 22.838402,22.838402 0 0 0 -21.7623,-1.28617 z"
         id="path5315"
         inkscape:connector-curvature="0" />
      <path
         inkscape:connector-curvature="0"
         id="path5317"
         d="m 1508.6388,445.85839 a 18.028155,18.028155 0 0 0 12.5874,11.71873 18.028155,18.028155 0 0 0 16.6884,-4.19827 18.028155,18.028155 0 0 0 -12.5872,-11.71932 18.028155,18.028155 0 0 0 -16.6886,4.19886 z"
         style="opacity:1;fill:#4f602b;fill-opacity:1;stroke:none" />
      <path
         style="opacity:1;fill:#6b8e23;fill-opacity:1;stroke:none"
         d="m 1523.2851,427.44532 a 15.02175,15.02175 0 0 0 10.4882,9.76449 15.02175,15.02175 0 0 0 13.9054,-3.49816 15.02175,15.02175 0 0 0 -10.4881,-9.76498 15.02175,15.02175 0 0 0 -13.9055,3.49865 z"
         id="path5319"
         inkscape:connector-curvature="0" />
      <path
         inkscape:connector-curvature="0"
         id="path5321"
         d="m 1493.901,444.9073 a 22.838402,22.838402 0 0 1 -8.2548,-20.16232 22.838402,22.838402 0 0 1 12.4444,-17.899 22.838402,22.838402 0 0 1 8.2555,20.1624 22.838402,22.838402 0 0 1 -12.4451,17.89892 z"
         style="opacity:1;fill:#bdb76b;fill-opacity:1;stroke:none" />
      <path
         style="opacity:1;fill:#283215;fill-opacity:1;stroke:none"
         d="m 1514.8241,423.49192 a 18.028155,18.028155 0 0 1 -8.2899,-15.06811 18.028155,18.028155 0 0 1 8.1467,-15.15783 18.028155,18.028155 0 0 1 8.2905,15.06811 18.028155,18.028155 0 0 1 -8.1473,15.15783 z"
         id="path5323"
         inkscape:connector-curvature="0" />
      <path
         inkscape:connector-curvature="0"
         id="path5325"
         d="m 1482.2415,345.89897 a 15.02175,15.02175 0 0 1 -9.9844,-10.27922 15.02175,15.02175 0 0 1 3.2031,-13.97635 15.02175,15.02175 0 0 1 9.9848,10.27908 15.02175,15.02175 0 0 1 -3.2035,13.97649 z"
         style="opacity:1;fill:#808080;fill-opacity:1;stroke:none" />
      <path
         style="opacity:1;fill:#080806;fill-opacity:1;stroke:none"
         d="m 1463.8333,440.72802 a 24.63334,24.63334 0 0 1 -20.6868,-11.14717 24.63334,24.63334 0 0 1 -1.8889,-23.43722 24.63334,24.63334 0 0 1 20.6874,11.1467 24.63334,24.63334 0 0 1 1.8883,23.43769 z"
         id="path5327"
         inkscape:connector-curvature="0" />
      <path
         inkscape:connector-curvature="0"
         id="path5329"
         d="m 1472.5946,412.5376 a 19.248527,19.248527 0 0 1 -16.1647,-8.71042 19.248527,19.248527 0 0 1 -1.476,-18.31388 19.248527,19.248527 0 0 1 16.1652,8.71005 19.248527,19.248527 0 0 1 1.4755,18.31425 z"
         style="opacity:1;fill:#d2d7ca;fill-opacity:1;stroke:none" />
      <path
         style="opacity:1;fill:#cee69b;fill-opacity:1;stroke:none"
         d="m 1478.3243,387.15082 a 15.771207,15.771207 0 0 1 -13.2445,-7.13685 15.771207,15.771207 0 0 1 -1.2094,-15.0054 15.771207,15.771207 0 0 1 13.245,7.13654 15.771207,15.771207 0 0 1 1.2089,15.00571 z"
         id="path5331"
         inkscape:connector-curvature="0" />
      <path
         inkscape:connector-curvature="0"
         id="path5333"
         d="m 1479.7889,364.69328 a 15.771207,15.771207 0 0 1 -13.2445,-7.13685 15.771207,15.771207 0 0 1 -1.2093,-15.0054 15.771207,15.771207 0 0 1 13.2449,7.13654 15.771207,15.771207 0 0 1 1.2089,15.00571 z"
         style="opacity:1;fill:#a4e325;fill-opacity:1;stroke:none" />
      <path
         style="opacity:1;fill:#b5d671;fill-opacity:1;stroke:none"
         d="m 1487.3304,399.01865 a 19.248527,19.248527 0 0 0 17.6929,-4.91225 19.248527,19.248527 0 0 0 5.4972,-17.53162 19.248527,19.248527 0 0 0 -17.6934,4.91177 19.248527,19.248527 0 0 0 -5.4967,17.5321 z"
         id="path5335"
         inkscape:connector-curvature="0" />
      <path
         inkscape:connector-curvature="0"
         id="path5337"
         d="m 1488.2822,376.66347 a 15.237122,15.237122 0 0 0 14.0057,-3.88854 15.237122,15.237122 0 0 0 4.3515,-13.87801 15.237122,15.237122 0 0 0 -14.006,3.88815 15.237122,15.237122 0 0 0 -4.3512,13.8784 z"
         style="opacity:1;fill:#9fd433;fill-opacity:1;stroke:none" />
      <path
         style="opacity:1;fill:#809651;fill-opacity:1;stroke:none"
         d="m 1486.3244,358.62026 a 14.434841,14.434841 0 0 0 13.2683,-3.68379 14.434841,14.434841 0 0 0 4.1224,-13.14729 14.434841,14.434841 0 0 0 -13.2686,3.68342 14.434841,14.434841 0 0 0 -4.1221,13.14766 z"
         id="path5339"
         inkscape:connector-curvature="0" />
      <path
         style="opacity:1;fill:#bdb76b;fill-opacity:1;stroke:none"
         d="m 1098.5994,544.12118 a 37.498456,37.498456 0 0 1 1.6372,35.73418 37.498456,37.498456 0 0 1 -29.1221,20.8103 37.498456,37.498456 0 0 1 -1.6383,-35.73473 37.498456,37.498456 0 0 1 29.1232,-20.80975 z"
         id="path5341"
         inkscape:connector-curvature="0" />
      <path
         inkscape:connector-curvature="0"
         id="path5343"
         d="m 1060.1932,542.67448 a 33.727121,33.727121 0 0 1 -4.5016,31.85753 33.727121,33.727121 0 0 1 -29.205,13.54597 33.727121,33.727121 0 0 1 4.5007,-31.85821 33.727121,33.727121 0 0 1 29.2059,-13.54529 z"
         style="opacity:1;fill:#546434;fill-opacity:1;stroke:none" />
      <path
         style="opacity:1;fill:#adbe8a;fill-opacity:1;stroke:none"
         d="m 1024.8696,532.04687 a 29.012952,29.012952 0 0 1 -3.8725,27.40468 29.012952,29.012952 0 0 1 -25.1228,11.65259 29.012952,29.012952 0 0 1 3.87163,-27.40526 29.012952,29.012952 0 0 1 25.12367,-11.65201 z"
         id="path5345"
         inkscape:connector-curvature="0" />
      <path
         inkscape:connector-curvature="0"
         id="path5347"
         d="m 996.62381,519.29406 a 26.184451,26.184451 0 0 1 -10.19806,22.80205 26.184451,26.184451 0 0 1 -24.69761,3.83648 26.184451,26.184451 0 0 1 10.19754,-22.80274 26.184451,26.184451 0 0 1 24.69813,-3.83579 z"
         style="opacity:1;fill:#c1fa4c;fill-opacity:1;stroke:none" />
      <path
         style="opacity:1;fill:#bdb76b;fill-opacity:1;stroke:none"
         d="m 932.21714,480.69509 a 23.926831,23.926831 0 0 1 22.82249,-0.33865 23.926831,23.926831 0 0 1 12.69724,18.98402 23.926831,23.926831 0 0 1 -22.82289,0.33937 23.926831,23.926831 0 0 1 -12.69684,-18.98474 z"
         id="path5349"
         inkscape:connector-curvature="0" />
      <path
         style="opacity:1;fill:#6d8242;fill-opacity:1;stroke:none"
         d="m 1090.4179,530.63603 a 33.727121,33.727121 0 0 0 5.4678,-31.70598 33.727121,33.727121 0 0 0 -23.6555,-21.83671 33.727121,33.727121 0 0 0 -5.4688,31.70635 33.727121,33.727121 0 0 0 23.6565,21.83634 z"
         id="path5351"
         inkscape:connector-curvature="0" />
      <path
         inkscape:connector-curvature="0"
         id="path5353"
         d="m 1052.3953,529.09371 a 29.012952,29.012952 0 0 0 4.7036,-27.27432 29.012952,29.012952 0 0 0 -20.349,-18.78449 29.012952,29.012952 0 0 0 -4.7045,27.27462 29.012952,29.012952 0 0 0 20.3499,18.78419 z"
         style="opacity:1;fill:#808080;fill-opacity:1;stroke:none" />
      <path
         style="opacity:1;fill:#cef77a;fill-opacity:1;stroke:none"
         d="m 1017.9611,518.19439 a 24.48196,24.48196 0 0 0 3.969,-23.01485 24.48196,24.48196 0 0 0 -17.1711,-15.8509 24.48196,24.48196 0 0 0 -3.9697,23.01511 24.48196,24.48196 0 0 0 17.1718,15.85064 z"
         id="path5355"
         inkscape:connector-curvature="0" />
      <path
         inkscape:connector-curvature="0"
         id="path5357"
         d="m 988.31316,505.29001 a 21.632299,21.632299 0 0 0 3.50702,-20.33596 21.632299,21.632299 0 0 0 -15.17241,-14.00588 21.632299,21.632299 0 0 0 -3.5077,20.33619 21.632299,21.632299 0 0 0 15.17309,14.00565 z"
         style="opacity:1;fill:#c7e689;fill-opacity:1;stroke:none" />
      <path
         style="opacity:1;fill:#ced1c8;fill-opacity:1;stroke:none"
         d="m 973.80777,509.54107 a 21.314323,21.314323 0 0 1 -11.74226,16.59947 21.314323,21.314323 0 0 1 -20.32803,-0.83395 21.314323,21.314323 0 0 1 11.74195,-16.6001 21.314323,21.314323 0 0 1 20.32834,0.83458 z"
         id="path5359"
         inkscape:connector-curvature="0" />
      <path
         inkscape:connector-curvature="0"
         id="path5361"
         d="m 1053.5463,442.63512 a 25.77995,25.77995 0 0 1 -8.4647,23.09012 25.77995,25.77995 0 0 1 -23.9968,5.44897 25.77995,25.77995 0 0 1 8.4641,-23.09077 25.77995,25.77995 0 0 1 23.9974,-5.44832 z"
         style="opacity:1;fill:#b5b9ae;fill-opacity:1;stroke:none" />
      <path
         style="opacity:1;fill:#e1fea6;fill-opacity:1;stroke:none"
         d="m 1034.6671,431.95058 a 23.187181,23.187181 0 0 1 -14.803,16.43595 23.187181,23.187181 0 0 1 -21.85534,-3.4935 23.187181,23.187181 0 0 1 14.80274,-16.4367 23.187181,23.187181 0 0 1 21.8556,3.49425 z"
         id="path5363"
         inkscape:connector-curvature="0" />
      <path
         inkscape:connector-curvature="0"
         id="path5365"
         d="m 1018.1195,410.85868 a 19.94622,19.94622 0 0 1 -12.7339,14.13863 19.94622,19.94622 0 0 1 -18.80053,-3.0052 19.94622,19.94622 0 0 1 12.73369,-14.13927 19.94622,19.94622 0 0 1 18.80074,3.00584 z"
         style="opacity:1;fill:#bdb76b;fill-opacity:1;stroke:none" />
      <path
         style="opacity:1;fill:#3f4435;fill-opacity:1;stroke:none"
         d="m 1010.3297,394.20279 a 18.001643,18.001643 0 0 1 -14.57297,9.08461 18.001643,18.001643 0 0 1 -15.556,-7.29857 18.001643,18.001643 0 0 1 14.5729,-9.08523 18.001643,18.001643 0 0 1 15.55607,7.29919 z"
         id="path5367"
         inkscape:connector-curvature="0" />
      <path
         inkscape:connector-curvature="0"
         id="path5369"
         d="m 990.38367,352.82614 a 16.449544,16.449544 0 0 1 13.14333,8.57281 16.449544,16.449544 0 0 1 -0.052,15.70147 16.449544,16.449544 0 0 1 -13.14382,-8.57255 16.449544,16.449544 0 0 1 0.0522,-15.70173 z"
         style="opacity:1;fill:#222913;fill-opacity:1;stroke:none" />
      <path
         style="opacity:1;fill:#060605;fill-opacity:1;stroke:none"
         d="m 1031.8753,414.18202 a 18.739234,18.739234 0 0 0 12.3616,-12.91333 18.739234,18.739234 0 0 0 -4.1225,-17.40561 18.739234,18.739234 0 0 0 -12.3621,12.91317 18.739234,18.739234 0 0 0 4.123,17.40577 z"
         id="path5371"
         inkscape:connector-curvature="0" />
      <path
         inkscape:connector-curvature="0"
         id="path5373"
         d="m 1018.2743,396.55876 a 16.831192,16.831192 0 0 0 11.1029,-11.59848 16.831192,16.831192 0 0 0 -3.7026,-15.63337 16.831192,16.831192 0 0 0 -11.1035,11.59834 16.831192,16.831192 0 0 0 3.7032,15.63351 z"
         style="opacity:1;fill:#b8f047;fill-opacity:1;stroke:none" />
      <path
         style="opacity:1;fill:#cdfc6f;fill-opacity:1;stroke:none"
         d="m 1433.8265,296.31045 a 22.838402,22.838402 0 0 1 12.5504,-17.80868 22.838402,22.838402 0 0 1 21.7831,0.85497 22.838402,22.838402 0 0 1 -12.55,17.80937 22.838402,22.838402 0 0 1 -21.7835,-0.85566 z"
         id="path5375"
         inkscape:connector-curvature="0" />
      <path
         style="opacity:1;fill:#3a4c13;fill-opacity:1;stroke:none"
         d="m 1451.6603,201.80272 a 15.02175,15.02175 0 0 1 -8.0002,-11.8889 15.02175,15.02175 0 0 1 5.6341,-13.18539 15.02175,15.02175 0 0 1 8.0007,11.88885 15.02175,15.02175 0 0 1 -5.6346,13.18544 z"
         id="path5377"
         inkscape:connector-curvature="0" />
      <path
         inkscape:connector-curvature="0"
         id="path5379"
         d="m 1421.0286,293.30391 a 24.63334,24.63334 0 0 1 -20.4315,-11.60838 24.63334,24.63334 0 0 1 -1.3628,-23.47368 24.63334,24.63334 0 0 1 20.4323,11.60791 24.63334,24.63334 0 0 1 1.362,23.47415 z"
         style="opacity:1;fill:#dfecc5;fill-opacity:1;stroke:none" />
      <path
         style="opacity:1;fill:#5a6e32;fill-opacity:1;stroke:none"
         d="m 1433.2879,269.05273 a 19.248527,19.248527 0 0 1 -16.7227,-7.58423 19.248527,19.248527 0 0 1 -2.7253,-18.17 19.248527,19.248527 0 0 1 16.7232,7.58382 19.248527,19.248527 0 0 1 2.7248,18.17041 z"
         id="path5381"
         inkscape:connector-curvature="0" />
      <path
         inkscape:connector-curvature="0"
         id="path5383"
         d="m 1441.4105,245.00664 a 15.771207,15.771207 0 0 1 -14.0131,-5.47569 15.771207,15.771207 0 0 1 -3.0226,-14.74749 15.771207,15.771207 0 0 1 14.0135,5.47533 15.771207,15.771207 0 0 1 3.0222,14.74785 z"
         style="opacity:1;fill:#c6ea7e;fill-opacity:1;stroke:none" />
      <path
         style="opacity:1;fill:#91b151;fill-opacity:1;stroke:none"
         d="m 1443.4681,224.74484 a 15.771207,15.771207 0 0 1 -11.7666,-9.37544 15.771207,15.771207 0 0 1 1.4746,-14.98165 15.771207,15.771207 0 0 1 11.7671,9.3752 15.771207,15.771207 0 0 1 -1.4751,14.98189 z"
         id="path5385"
         inkscape:connector-curvature="0" />
      <path
         inkscape:connector-curvature="0"
         id="path5387"
         d="m 1442.6519,269.04438 a 19.248527,19.248527 0 0 0 18.3355,0.98923 19.248527,19.248527 0 0 0 10.8032,-14.86162 19.248527,19.248527 0 0 0 -18.3358,-0.98982 19.248527,19.248527 0 0 0 -10.8029,14.86221 z"
         style="opacity:1;fill:#a7b48b;fill-opacity:1;stroke:none" />
      <path
         style="opacity:1;fill:#adf51c;fill-opacity:1;stroke:none"
         d="m 1449.982,244.12695 a 15.237122,15.237122 0 0 0 14.457,1.50866 15.237122,15.237122 0 0 0 9.13,-11.32159 15.237122,15.237122 0 0 0 -14.4571,-1.50915 15.237122,15.237122 0 0 0 -9.1299,11.32208 z"
         id="path5389"
         inkscape:connector-curvature="0" />
      <path
         inkscape:connector-curvature="0"
         id="path5391"
         d="m 1452.4428,224.32283 a 14.434841,14.434841 0 0 0 13.7116,-1.26899 14.434841,14.434841 0 0 0 6.3916,-12.20624 14.434841,14.434841 0 0 0 -13.7117,1.26857 14.434841,14.434841 0 0 0 -6.3915,12.20666 z"
         style="opacity:1;fill:#2a390c;fill-opacity:1;stroke:none" />
      <path
         inkscape:connector-curvature="0"
         id="path5393"
         d="m 1448.0689,350.93579 a 12.03164,12.03164 0 0 1 4.2843,-10.64798 12.03164,12.03164 0 0 1 11.2732,-2.19293 12.03164,12.03164 0 0 1 -4.284,10.64829 12.03164,12.03164 0 0 1 -11.2735,2.19262 z"
         style="opacity:1;fill:#bdb76b;fill-opacity:1;stroke:none" />
      <path
         inkscape:connector-curvature="0"
         id="path5395"
         d="m 1374.1599,296.18095 a 19.664927,19.664927 0 0 0 -11.4332,-14.87266 19.664927,19.664927 0 0 0 -18.7096,1.51354 19.664927,19.664927 0 0 0 11.4329,14.87327 19.664927,19.664927 0 0 0 18.7099,-1.51415 z"
         style="opacity:1;fill:#4e5048;fill-opacity:1;stroke:none" />
      <path
         inkscape:connector-curvature="0"
         id="path5397"
         d="m 1389.541,231.41609 a 12.934426,12.934426 0 0 0 10.678,-6.18284 12.934426,12.934426 0 0 0 0.6147,-12.33096 12.934426,12.934426 0 0 0 -10.6784,6.1826 12.934426,12.934426 0 0 0 -0.6143,12.3312 z"
         style="opacity:1;fill:#b9dc71;fill-opacity:1;stroke:none" />
      <path
         style="opacity:1;fill:#6e9d0f;fill-opacity:1;stroke:none"
         d="m 1423.8406,311.83569 a 23.540221,23.540221 0 0 0 19.5583,11.03421 23.540221,23.540221 0 0 0 19.9049,-10.42532 23.540221,23.540221 0 0 0 -19.5583,-11.03503 23.540221,23.540221 0 0 0 -19.9049,10.42614 z"
         id="path5399"
         inkscape:connector-curvature="0" />
      <path
         inkscape:connector-curvature="0"
         id="path5401"
         d="m 1384.9506,313.2904 a 19.457791,19.457791 0 0 0 18.3912,-2.51112 19.457791,19.457791 0 0 0 7.8936,-16.81213 19.457791,19.457791 0 0 0 -18.3915,2.51059 19.457791,19.457791 0 0 0 -7.8933,16.81266 z"
         style="opacity:1;fill:#d1ee96;fill-opacity:1;stroke:none" />
      <path
         style="opacity:1;fill:#4f6a19;fill-opacity:1;stroke:none"
         d="m 1380.6835,260.42243 a 13.579744,13.579744 0 0 0 12.9118,1.04965 13.579744,13.579744 0 0 0 7.9041,-10.2735 13.579744,13.579744 0 0 0 -12.912,-1.05009 13.579744,13.579744 0 0 0 -7.9039,10.27394 z"
         id="path5403"
         inkscape:connector-curvature="0" />
      <path
         inkscape:connector-curvature="0"
         id="path5405"
         d="m 1386.2482,246.89337 a 13.579744,13.579744 0 0 0 12.6446,-2.81632 13.579744,13.579744 0 0 0 4.5118,-12.15168 13.579744,13.579744 0 0 0 -12.6449,2.81596 13.579744,13.579744 0 0 0 -4.5115,12.15204 z"
         style="opacity:1;fill:#b7fa2e;fill-opacity:1;stroke:none" />
      <path
         style="opacity:1;fill:#c0c0c0;fill-opacity:1;stroke:none"
         d="m 1372.6901,276.6449 a 16.573878,16.573878 0 0 1 -15.7186,-1.70384 16.573878,16.573878 0 0 1 -7.1181,-14.12846 16.573878,16.573878 0 0 1 15.7189,1.70338 16.573878,16.573878 0 0 1 7.1178,14.12892 z"
         id="path5407"
         inkscape:connector-curvature="0" />
      <path
         inkscape:connector-curvature="0"
         id="path5409"
         d="m 1373.8931,259.43649 a 13.119871,13.119871 0 0 1 -11.7584,-4.28746 13.119871,13.119871 0 0 1 -2.7943,-12.20757 13.119871,13.119871 0 0 1 11.7588,4.28715 13.119871,13.119871 0 0 1 2.7939,12.20788 z"
         style="opacity:1;fill:#6c9120;fill-opacity:1;stroke:none" />
      <path
         style="opacity:1;fill:#d3e8a9;fill-opacity:1;stroke:none"
         d="m 1379.4613,243.18026 a 12.42907,12.42907 0 0 1 -10.1334,-6.15598 12.42907,12.42907 0 0 1 -0.3411,-11.85898 12.42907,12.42907 0 0 1 10.1338,6.15575 12.42907,12.42907 0 0 1 0.3407,11.85921 z"
         id="path5411"
         inkscape:connector-curvature="0" />
      <path
         style="opacity:1;fill:#d0ec97;fill-opacity:1;stroke:none"
         d="m 1378.0656,323.29865 a 24.76097,24.76097 0 0 0 -14.396,-18.72682 24.76097,24.76097 0 0 0 -23.5581,1.90577 24.76097,24.76097 0 0 0 14.3957,18.72758 24.76097,24.76097 0 0 0 23.5584,-1.90653 z"
         id="path5413"
         inkscape:connector-curvature="0" />
      <path
         style="opacity:1;fill:#c0c0c0;fill-opacity:1;stroke:none"
         d="m 1402.4442,372.26948 a 16.888608,16.888608 0 0 1 -2.3916,-15.93241 16.888608,16.888608 0 0 1 12.0807,-10.674 16.888608,16.888608 0 0 1 2.3921,15.93259 16.888608,16.888608 0 0 1 -12.0812,10.67382 z"
         id="path5415"
         inkscape:connector-curvature="0" />
      <path
         inkscape:connector-curvature="0"
         id="path5417"
         d="m 1420.8414,367.326 a 13.837616,13.837616 0 0 1 -1.9595,-13.05417 13.837616,13.837616 0 0 1 9.8982,-8.74569 13.837616,13.837616 0 0 1 1.9599,13.05431 13.837616,13.837616 0 0 1 -9.8986,8.74555 z"
         style="opacity:1;fill:#040501;fill-opacity:1;stroke:none" />
      <path
         style="opacity:1;fill:#bec3b3;fill-opacity:1;stroke:none"
         d="m 1436.4022,357.02406 a 13.837616,13.837616 0 0 1 -1.9595,-13.05416 13.837616,13.837616 0 0 1 9.8982,-8.7457 13.837616,13.837616 0 0 1 1.9599,13.05432 13.837616,13.837616 0 0 1 -9.8986,8.74554 z"
         id="path5419"
         inkscape:connector-curvature="0" />
      <path
         style="opacity:1;fill:#baed51;fill-opacity:1;stroke:none"
         d="m 1422.0316,373.72578 a 13.837616,13.837616 0 0 0 8.0014,10.499 13.837616,13.837616 0 0 0 13.1697,-1.00996 13.837616,13.837616 0 0 0 -8.0012,-10.49943 13.837616,13.837616 0 0 0 -13.1699,1.01039 z"
         id="path5421"
         inkscape:connector-curvature="0" />
      <path
         inkscape:connector-curvature="0"
         id="path5423"
         d="m 1438.3094,364.36668 a 13.837616,13.837616 0 0 0 8.0014,10.499 13.837616,13.837616 0 0 0 13.1697,-1.00996 13.837616,13.837616 0 0 0 -8.0011,-10.49943 13.837616,13.837616 0 0 0 -13.17,1.01039 z"
         style="opacity:1;fill:#9ee40f;fill-opacity:1;stroke:none" />
      <path
         style="opacity:1;fill:#172103;fill-opacity:1;stroke:none"
         d="m 1410.9651,397.8037 a 12.03164,12.03164 0 0 1 4.2843,-10.64798 12.03164,12.03164 0 0 1 11.2733,-2.19293 12.03164,12.03164 0 0 1 -4.2841,10.64829 12.03164,12.03164 0 0 1 -11.2735,2.19262 z"
         id="path5425"
         inkscape:connector-curvature="0" />
      <path
         inkscape:connector-curvature="0"
         id="path5427"
         d="m 1352.8619,458.63566 a 20.746392,20.746392 0 0 1 -10.0304,-17.06094 20.746392,20.746392 0 0 1 8.8738,-17.70352 20.746392,20.746392 0 0 1 10.0311,17.06091 20.746392,20.746392 0 0 1 -8.8745,17.70355 z"
         style="opacity:1;fill:#fcfdfa;fill-opacity:1;stroke:none" />
      <path
         style="opacity:1;fill:#020300;fill-opacity:1;stroke:none"
         d="m 1371.7767,444.0588 a 16.388337,16.388337 0 0 1 -10.3272,-11.73718 16.388337,16.388337 0 0 1 4.2411,-15.05724 16.388337,16.388337 0 0 1 10.3277,11.73704 16.388337,16.388337 0 0 1 -4.2416,15.05738 z"
         id="path5429"
         inkscape:connector-curvature="0" />
      <path
         inkscape:connector-curvature="0"
         id="path5431"
         d="m 1386.3557,429.68839 a 15.318125,15.318125 0 0 1 -9.735,-10.89782 15.318125,15.318125 0 0 1 3.8582,-14.10336 15.318125,15.318125 0 0 1 9.7355,10.89768 15.318125,15.318125 0 0 1 -3.8587,14.1035 z"
         style="opacity:1;fill:#dcf2af;fill-opacity:1;stroke:none" />
      <path
         style="opacity:1;fill:#a0a892;fill-opacity:1;stroke:none"
         d="m 1397.0119,414.53384 a 13.184528,13.184528 0 0 1 -6.8912,-10.52149 13.184528,13.184528 0 0 1 5.0888,-11.51028 13.184528,13.184528 0 0 1 6.8916,10.52143 13.184528,13.184528 0 0 1 -5.0892,11.51034 z"
         id="path5433"
         inkscape:connector-curvature="0" />
      <path
         style="opacity:1;fill:#4d6026;fill-opacity:1;stroke:none"
         d="m 1350.8323,475.94424 a 21.816647,21.816647 0 0 0 14.0478,15.35577 21.816647,21.816647 0 0 0 20.5373,-3.44672 21.816647,21.816647 0 0 0 -14.0475,-15.35645 21.816647,21.816647 0 0 0 -20.5376,3.4474 z"
         id="path5435"
         inkscape:connector-curvature="0" />
      <path
         inkscape:connector-curvature="0"
         id="path5437"
         d="m 1368.9649,460.45174 a 16.388337,16.388337 0 0 0 9.8717,12.12275 16.388337,16.388337 0 0 0 15.5507,-1.69772 16.388337,16.388337 0 0 0 -9.8715,-12.12326 16.388337,16.388337 0 0 0 -15.5509,1.69823 z"
         style="opacity:1;fill:#222815;fill-opacity:1;stroke:none" />
      <path
         style="opacity:1;fill:#343533;fill-opacity:1;stroke:none"
         d="m 1382.127,446.97993 a 15.318125,15.318125 0 0 0 9.1416,11.40016 15.318125,15.318125 0 0 0 14.5467,-1.47752 15.318125,15.318125 0 0 0 -9.1414,-11.40063 15.318125,15.318125 0 0 0 -14.5469,1.47799 z"
         id="path5439"
         inkscape:connector-curvature="0" />
      <path
         inkscape:connector-curvature="0"
         id="path5441"
         d="m 1352.6017,508.21633 a 13.184528,13.184528 0 0 0 12.5417,0.94683 13.184528,13.184528 0 0 0 7.6165,-10.01859 13.184528,13.184528 0 0 0 -12.5419,-0.94724 13.184528,13.184528 0 0 0 -7.6163,10.019 z"
         style="opacity:1;fill:#c7e38d;fill-opacity:1;stroke:none" />
      <path
         style="opacity:1;fill:#a6d34c;fill-opacity:1;stroke:none"
         d="m 1418.9294,423.56705 a 12.041944,12.041944 0 0 1 -3.5761,-10.91663 12.041944,12.041944 0 0 1 7.2238,-8.94083 12.041944,12.041944 0 0 1 3.5764,10.91671 12.041944,12.041944 0 0 1 -7.2241,8.94075 z"
         id="path5443"
         inkscape:connector-curvature="0" />
      <path
         style="opacity:1;fill:#162101;fill-opacity:1;stroke:none"
         d="m 1332.7414,422.2933 a 13.184528,13.184528 0 0 0 12.4723,-1.62262 13.184528,13.184528 0 0 0 5.4207,-11.35776 13.184528,13.184528 0 0 0 -12.4726,1.62224 13.184528,13.184528 0 0 0 -5.4204,11.35814 z"
         id="path5445"
         inkscape:connector-curvature="0" />
      <path
         inkscape:connector-curvature="0"
         id="path5447"
         d="m 1321.696,430.07387 a 15.556798,15.556798 0 0 0 4.4994,-14.14193 15.556798,15.556798 0 0 0 -9.4304,-11.47048 15.556798,15.556798 0 0 0 -4.5,14.14197 15.556798,15.556798 0 0 0 9.431,11.47044 z"
         style="opacity:1;fill:#808000;fill-opacity:1;stroke:none" />
      <path
         style="opacity:1;fill:#deeac3;fill-opacity:1;stroke:none"
         d="m 1311.7394,442.66928 a 16.605437,16.605437 0 0 0 -0.019,-15.84079 16.605437,16.605437 0 0 0 -13.3147,-8.59938 16.605437,16.605437 0 0 0 0.019,15.841 16.605437,16.605437 0 0 0 13.3153,8.59917 z"
         id="path5449"
         inkscape:connector-curvature="0" />
      <path
         inkscape:connector-curvature="0"
         id="path5451"
         d="m 1304.9603,457.34488 a 18.475926,18.475926 0 0 0 -5.2476,-16.82585 18.475926,18.475926 0 0 0 -16.9857,-4.74395 18.475926,18.475926 0 0 0 5.2471,16.82625 18.475926,18.475926 0 0 0 16.9862,4.74355 z"
         style="opacity:1;fill:#808000;fill-opacity:1;stroke:none" />
      <path
         style="opacity:1;fill:#c0c0c0;fill-opacity:1;stroke:none"
         d="m 1315.803,460.37655 a 16.388337,16.388337 0 0 0 15.3105,3.16244 16.388337,16.388337 0 0 0 10.9831,-11.139 16.388337,16.388337 0 0 0 -15.3106,-3.16297 16.388337,16.388337 0 0 0 -10.983,11.13953 z"
         id="path5453"
         inkscape:connector-curvature="0" />
      <path
         inkscape:connector-curvature="0"
         id="path5455"
         d="m 1320.7698,445.5313 a 13.184528,13.184528 0 0 0 12.5773,-0.0468 13.184528,13.184528 0 0 0 6.8013,-10.58889 13.184528,13.184528 0 0 0 -12.5775,0.0464 13.184528,13.184528 0 0 0 -6.8011,10.58929 z"
         style="opacity:1;fill:#bdb76b;fill-opacity:1;stroke:none" />
      <path
         inkscape:connector-curvature="0"
         id="path5457"
         d="m 1552.2352,548.01616 a 22.015391,22.015391 0 0 0 9.9879,18.47453 22.015391,22.015391 0 0 0 20.9487,1.65931 22.015391,22.015391 0 0 0 -9.9875,-18.47515 22.015391,22.015391 0 0 0 -20.9491,-1.65869 z"
         style="opacity:1;fill:#99dc10;fill-opacity:1;stroke:none" />
      <path
         inkscape:connector-curvature="0"
         id="path5459"
         d="m 1187.738,406.39645 a 22.838402,22.838402 0 0 1 14.0931,-16.61457 22.838402,22.838402 0 0 1 21.6193,2.80019 22.838402,22.838402 0 0 1 -14.0928,16.61529 22.838402,22.838402 0 0 1 -21.6196,-2.80091 z"
         style="opacity:1;fill:#a4be71;fill-opacity:1;stroke:none" />
      <path
         inkscape:connector-curvature="0"
         id="path5461"
         d="m 1313.5347,162.12596 a 15.02175,15.02175 0 0 1 -12.0721,-7.72091 15.02175,15.02175 0 0 1 -0.081,-14.33846 15.02175,15.02175 0 0 1 12.0725,7.72067 15.02175,15.02175 0 0 1 0.081,14.3387 z"
         style="opacity:1;fill:#606850;fill-opacity:1;stroke:none" />
      <path
         style="opacity:1;fill:#719723;fill-opacity:1;stroke:none"
         d="m 1212.4891,200.2656 a 18.225427,18.225427 0 0 1 -8.6695,-15.07047 18.225427,18.225427 0 0 1 7.9422,-15.47791 18.225427,18.225427 0 0 1 8.6701,15.07044 18.225427,18.225427 0 0 1 -7.9428,15.47794 z"
         id="path5463"
         inkscape:connector-curvature="0" />
      <path
         inkscape:connector-curvature="0"
         id="path5465"
         d="m 1325.4083,217.46112 a 19.248527,19.248527 0 0 1 -18.3597,-0.29942 19.248527,19.248527 0 0 1 -9.7341,-15.58282 19.248527,19.248527 0 0 1 18.36,0.29884 19.248527,19.248527 0 0 1 9.7338,15.5834 z"
         style="opacity:1;fill:#2d3718;fill-opacity:1;stroke:none" />
      <path
         style="opacity:1;fill:#bdef58;fill-opacity:1;stroke:none"
         d="m 1321.298,191.04871 a 18.943908,18.943908 0 0 1 -16.967,6.22093 18.943908,18.943908 0 0 1 -14.453,-10.86683 18.943908,18.943908 0 0 1 16.9672,-6.2216 18.943908,18.943908 0 0 1 14.4528,10.8675 z"
         id="path5467"
         inkscape:connector-curvature="0" />
      <path
         inkscape:connector-curvature="0"
         id="path5469"
         d="m 1314.9936,172.70479 a 15.771207,15.771207 0 0 1 -14.5649,3.77015 15.771207,15.771207 0 0 1 -11.0881,-10.18226 15.771207,15.771207 0 0 1 14.565,-3.77069 15.771207,15.771207 0 0 1 11.088,10.1828 z"
         style="opacity:1;fill:#0d0e09;fill-opacity:1;stroke:none" />
      <path
         style="opacity:1;fill:#cbf870;fill-opacity:1;stroke:none"
         d="m 1324.7188,185.40936 a 19.248527,19.248527 0 0 0 17.2136,-6.39247 19.248527,19.248527 0 0 0 3.9932,-17.93408 19.248527,19.248527 0 0 0 -17.214,6.39204 19.248527,19.248527 0 0 0 -3.9928,17.93451 z"
         id="path5471"
         inkscape:connector-curvature="0" />
      <path
         inkscape:connector-curvature="0"
         id="path5473"
         d="m 1385.4778,166.46843 a 15.237122,15.237122 0 0 0 13.8624,-4.37183 15.237122,15.237122 0 0 0 3.8678,-14.02055 15.237122,15.237122 0 0 0 -13.8628,4.37145 15.237122,15.237122 0 0 0 -3.8674,14.02093 z"
         style="opacity:1;fill:#415810;fill-opacity:1;stroke:none" />
      <path
         style="opacity:1;fill:#848681;fill-opacity:1;stroke:none"
         d="m 1318.3364,167.33831 a 14.434841,14.434841 0 0 0 12.0728,-6.62306 14.434841,14.434841 0 0 0 1.0036,-13.74185 14.434841,14.434841 0 0 0 -12.0732,6.62278 14.434841,14.434841 0 0 0 -1.0032,13.74213 z"
         id="path5475"
         inkscape:connector-curvature="0" />
      <path
         inkscape:connector-curvature="0"
         id="path5477"
         d="m 1272.2322,313.81694 a 21.173984,21.173984 0 0 0 12.6175,-15.77331 21.173984,21.173984 0 0 0 -6.3853,-19.176 21.173984,21.173984 0 0 0 -12.6181,15.77316 21.173984,21.173984 0 0 0 6.3859,19.17615 z"
         style="opacity:1;fill:#808000;fill-opacity:1;stroke:none" />
      <path
         inkscape:connector-curvature="0"
         id="path5479"
         d="m 1378.7852,191.24791 a 14.650642,14.650642 0 0 0 12.3054,6.62602 14.650642,14.650642 0 0 0 12.2578,-6.73135 14.650642,14.650642 0 0 0 -12.3054,-6.62653 14.650642,14.650642 0 0 0 -12.2578,6.73186 z"
         style="opacity:1;fill:#74815a;fill-opacity:1;stroke:none" />
      <path
         style="opacity:1;fill:#49582b;fill-opacity:1;stroke:none"
         d="m 1382.3967,180.1077 a 13.579744,13.579744 0 0 0 12.7122,2.49327 13.579744,13.579744 0 0 0 9.008,-9.32069 13.579744,13.579744 0 0 0 -12.7123,-2.49372 13.579744,13.579744 0 0 0 -9.0079,9.32114 z"
         id="path5481"
         inkscape:connector-curvature="0" />
      <path
         style="opacity:1;fill:#222d0d;fill-opacity:1;stroke:none"
         d="m 1371.0525,206.3862 a 15.721541,15.721541 0 0 0 13.205,7.11035 15.721541,15.721541 0 0 0 13.1537,-7.22338 15.721541,15.721541 0 0 0 -13.2049,-7.1109 15.721541,15.721541 0 0 0 -13.1538,7.22393 z"
         id="path5483"
         inkscape:connector-curvature="0" />
      <path
         style="opacity:1;fill:#808000;fill-opacity:1;stroke:none"
         d="m 1375.2617,183.61123 a 13.579744,13.579744 0 0 1 -12.5933,-3.03774 13.579744,13.579744 0 0 1 -4.2979,-12.22897 13.579744,13.579744 0 0 1 12.5936,3.03738 13.579744,13.579744 0 0 1 4.2976,12.22933 z"
         id="path5485"
         inkscape:connector-curvature="0" />
      <path
         inkscape:connector-curvature="0"
         id="path5487"
         d="m 1380.846,170.98783 a 13.579744,13.579744 0 0 1 -11.1313,-6.6266 13.579744,13.579744 0 0 1 -0.4885,-12.95303 13.579744,13.579744 0 0 1 11.1316,6.62634 13.579744,13.579744 0 0 1 0.4882,12.95329 z"
         style="opacity:1;fill:#bdb76b;fill-opacity:1;stroke:none" />
      <path
         inkscape:connector-curvature="0"
         id="path5489"
         d="m 1368.2321,199.07528 a 15.887577,15.887577 0 0 1 -14.7334,-3.554 15.887577,15.887577 0 0 1 -5.0283,-14.30724 15.887577,15.887577 0 0 1 14.7337,3.55357 15.887577,15.887577 0 0 1 5.028,14.30767 z"
         style="opacity:1;fill:#a8dd3b;fill-opacity:1;stroke:none" />
      <path
         inkscape:connector-curvature="0"
         id="path5491"
         d="m 1333.5511,216.62006 a 15.78989,15.78989 0 0 0 14.8478,-2.53567 15.78989,15.78989 0 0 0 5.9459,-13.8495 15.78989,15.78989 0 0 0 -14.8482,2.53522 15.78989,15.78989 0 0 0 -5.9455,13.84995 z"
         style="opacity:1;fill:#6b9e01;fill-opacity:1;stroke:none" />
      <path
         style="opacity:1;fill:#b4e450;fill-opacity:1;stroke:none"
         d="m 1253.9608,300.52687 a 19.267884,19.267884 0 0 0 11.4817,-14.35338 19.267884,19.267884 0 0 0 -5.8105,-17.44975 19.267884,19.267884 0 0 0 -11.4823,14.35324 19.267884,19.267884 0 0 0 5.8111,17.44989 z"
         id="path5493"
         inkscape:connector-curvature="0" />
      <path
         inkscape:connector-curvature="0"
         id="path5495"
         d="m 1236.8399,278.09831 a 16.112793,16.737288 19.16644 0 0 13.1628,-8.62481 16.112793,16.737288 19.16644 0 0 0.3869,-15.913 16.112793,16.737288 19.16644 0 0 -13.1633,8.62451 16.112793,16.737288 19.16644 0 0 -0.3864,15.9133 z"
         style="opacity:1;fill:#304701;fill-opacity:1;stroke:none" />
      <path
         style="opacity:1;fill:#a0d436;fill-opacity:1;stroke:none"
         d="m 1224.805,255.54176 a 16.112793,16.737288 30.455771 0 0 14.5966,-5.88113 16.112793,16.737288 30.455771 0 0 3.4946,-15.52936 16.112793,16.737288 30.455771 0 0 -14.597,5.88075 16.112793,16.737288 30.455771 0 0 -3.4942,15.52974 z"
         id="path5497"
         inkscape:connector-curvature="0" />
      <path
         inkscape:connector-curvature="0"
         id="path5499"
         d="m 1218.6085,231.83921 a 16.112793,16.737288 35.037739 0 0 15.0197,-4.69629 16.112793,16.737288 35.037739 0 0 4.724,-15.20056 16.112793,16.737288 35.037739 0 0 -15.0201,4.69588 16.112793,16.737288 35.037739 0 0 -4.7236,15.20097 z"
         style="opacity:1;fill:#040502;fill-opacity:1;stroke:none" />
      <path
         inkscape:connector-curvature="0"
         id="path5501"
         d="m 1275.3825,200.09415 a 13.943093,13.943093 0 0 1 -6.6325,-11.52944 13.943093,13.943093 0 0 1 6.0761,-11.84114 13.943093,13.943093 0 0 1 6.6329,11.52941 13.943093,13.943093 0 0 1 -6.0765,11.84117 z"
         style="opacity:1;fill:#adb0a8;fill-opacity:1;stroke:none" />
      <path
         inkscape:connector-curvature="0"
         id="path5503"
         d="m 1300.3558,261.88391 a 18.249972,18.249972 0 0 0 16.8456,-4.39559 18.249972,18.249972 0 0 0 5.4702,-16.53892 18.249972,18.249972 0 0 0 -16.846,4.39511 18.249972,18.249972 0 0 0 -5.4698,16.5394 z"
         style="opacity:1;fill:#afc28a;fill-opacity:1;stroke:none" />
      <path
         style="opacity:1;fill:#c7f46b;fill-opacity:1;stroke:none"
         d="m 1290.5793,248.25588 a 17.4716,17.4716 0 0 0 16.1271,-4.20812 17.4716,17.4716 0 0 0 5.2369,-15.83353 17.4716,17.4716 0 0 0 -16.1274,4.20766 17.4716,17.4716 0 0 0 -5.2366,15.83399 z"
         id="path5505"
         inkscape:connector-curvature="0" />
      <path
         inkscape:connector-curvature="0"
         id="path5507"
         d="m 1282.7064,232.84209 a 13.579744,13.579744 0 0 0 12.5348,-3.27075 13.579744,13.579744 0 0 0 4.0703,-12.30656 13.579744,13.579744 0 0 0 -12.535,3.27039 13.579744,13.579744 0 0 0 -4.0701,12.30692 z"
         style="opacity:1;fill:#cce598;fill-opacity:1;stroke:none" />
      <path
         style="opacity:1;fill:#0f1306;fill-opacity:1;stroke:none"
         d="m 1277.8244,218.68408 a 13.579744,13.579744 0 0 0 12.5347,-3.27075 13.579744,13.579744 0 0 0 4.0704,-12.30656 13.579744,13.579744 0 0 0 -12.5351,3.27039 13.579744,13.579744 0 0 0 -4.07,12.30692 z"
         id="path5509"
         inkscape:connector-curvature="0" />
      <path
         inkscape:connector-curvature="0"
         id="path5511"
         d="m 1292.5125,269.76318 a 16.573878,16.573878 0 0 1 -14.8358,5.46586 16.573878,16.573878 0 0 1 -12.6597,-9.48756 16.573878,16.573878 0 0 1 14.8359,-5.46641 16.573878,16.573878 0 0 1 12.6596,9.48811 z"
         style="opacity:1;fill:#587916;fill-opacity:1;stroke:none" />
      <path
         style="opacity:1;fill:#aed460;fill-opacity:1;stroke:none"
         d="m 1275.9134,231.55464 a 15.396739,15.516031 0 0 1 -13.7821,5.11699 15.396739,15.516031 0 0 1 -11.7605,-8.882 15.396739,15.516031 0 0 1 13.7822,-5.11751 15.396739,15.516031 0 0 1 11.7604,8.88252 z"
         id="path5513"
         inkscape:connector-curvature="0" />
      <path
         inkscape:connector-curvature="0"
         id="path5515"
         d="m 1282.2601,251.69951 a 15.985309,16.573878 0 0 1 -14.3089,5.46586 15.985309,16.573878 0 0 1 -12.2101,-9.48756 15.985309,16.573878 0 0 1 14.3091,-5.46641 15.985309,16.573878 0 0 1 12.2099,9.48811 z"
         style="opacity:1;fill:#111902;fill-opacity:1;stroke:none" />
      <path
         inkscape:connector-curvature="0"
         id="path5517"
         d="m 1272.5616,217.22925 a 15.396739,15.516031 19.858765 0 1 -14.7008,0.13087 15.396739,15.516031 19.858765 0 1 -8.0439,-12.34889 15.396739,15.516031 19.858765 0 1 14.701,-0.13133 15.396739,15.516031 19.858765 0 1 8.0437,12.34935 z"
         style="opacity:1;fill:#a6e527;fill-opacity:1;stroke:none" />
      <path
         inkscape:connector-curvature="0"
         id="path5519"
         d="m 1425.2313,479.2647 a 17.523715,17.57734 0 0 0 16.0825,-4.57532 17.523715,17.57734 0 0 0 4.9159,-16.03708 17.523715,17.57734 0 0 0 -16.0828,4.57485 17.523715,17.57734 0 0 0 -4.9156,16.03755 z"
         style="opacity:1;fill:#6b8e23;fill-opacity:1;stroke:none" />
      <path
         style="opacity:1;fill:#d8efaa;fill-opacity:1;stroke:none"
         d="m 1417.929,442.07403 a 13.579744,13.579744 0 0 0 12.2815,-4.12092 13.579744,13.579744 0 0 0 3.2186,-12.5563 13.579744,13.579744 0 0 0 -12.2818,4.12061 13.579744,13.579744 0 0 0 -3.2183,12.55661 z"
         id="path5521"
         inkscape:connector-curvature="0" />
      <path
         style="opacity:1;fill:#c1dd88;fill-opacity:1;stroke:none"
         d="m 1420.2868,459.30645 a 14.368538,15.178783 0 0 0 13.1868,-3.95098 14.368538,15.178783 0 0 0 4.0308,-13.8487 14.368538,15.178783 0 0 0 -13.1871,3.95057 14.368538,15.178783 0 0 0 -4.0305,13.84911 z"
         id="path5523"
         inkscape:connector-curvature="0" />
      <path
         inkscape:connector-curvature="0"
         id="path5525"
         d="m 1343.9634,382.37786 a 22.838402,22.838402 0 0 0 10.7421,18.95434 22.838402,22.838402 0 0 0 21.7619,1.28681 22.838402,22.838402 0 0 0 -10.7417,-18.95498 22.838402,22.838402 0 0 0 -21.7623,-1.28617 z"
         style="opacity:1;fill:#9fbb65;fill-opacity:1;stroke:none" />
      <path
         inkscape:connector-curvature="0"
         id="path5527"
         d="m 1410.9714,442.56224 a 13.579744,13.579744 0 0 1 -12.2815,-4.12092 13.579744,13.579744 0 0 1 -3.2186,-12.5563 13.579744,13.579744 0 0 1 12.2818,4.12061 13.579744,13.579744 0 0 1 3.2183,12.55661 z"
         style="opacity:1;fill:#1b220c;fill-opacity:1;stroke:none" />
      <path
         style="opacity:1;fill:#c0fe41;fill-opacity:1;stroke:none"
         d="m 1415.8503,490.99195 a 17.57734,17.523715 59.219929 0 1 -16.1584,4.29926 17.57734,17.523715 59.219929 0 1 -12.4304,-11.26235 17.57734,17.523715 59.219929 0 1 16.1585,-4.29987 17.57734,17.523715 59.219929 0 1 12.4303,11.26296 z"
         id="path5529"
         inkscape:connector-curvature="0" />
      <path
         inkscape:connector-curvature="0"
         id="path5531"
         d="m 1413.4093,469.74293 a 12.147247,11.345746 1.1270087 0 1 -11.1916,2.77736 12.147247,11.345746 1.1270087 0 1 -8.6095,-7.27559 12.147247,11.345746 1.1270087 0 1 11.1917,-2.77775 12.147247,11.345746 1.1270087 0 1 8.6094,7.27598 z"
         style="opacity:1;fill:#6d9a11;fill-opacity:1;stroke:none" />
      <path
         inkscape:connector-curvature="0"
         id="path5533"
         d="m 1337.6928,535.98239 a 13.579744,13.579744 0 0 0 12.563,3.16058 13.579744,13.579744 0 0 0 9.4873,-8.83243 13.579744,13.579744 0 0 0 -12.5631,-3.161 13.579744,13.579744 0 0 0 -9.4871,8.83286 z"
         style="opacity:1;fill:#829a50;fill-opacity:1;stroke:none" />
      <path
         inkscape:connector-curvature="0"
         id="path5535"
         d="m 1337.1054,558.77146 a 14.368538,15.178783 7.4990265 0 0 13.5896,-2.19619 14.368538,15.178783 7.4990265 0 0 5.8037,-13.20419 14.368538,15.178783 7.4990265 0 0 -13.5899,2.19574 14.368538,15.178783 7.4990265 0 0 -5.8034,13.20464 z"
         style="opacity:1;fill:#fbfcfa;fill-opacity:1;stroke:none" />
      <path
         style="opacity:1;fill:#080c01;fill-opacity:1;stroke:none"
         d="m 1344.5277,521.33617 a 13.579744,13.579744 0 0 0 12.563,3.16058 13.579744,13.579744 0 0 0 9.4873,-8.83243 13.579744,13.579744 0 0 0 -12.5631,-3.161 13.579744,13.579744 0 0 0 -9.4871,8.83286 z"
         id="path5537"
         inkscape:connector-curvature="0" />
      <path
         style="opacity:1;fill:#cbe792;fill-opacity:1;stroke:none"
         d="m 1479.075,469.02946 a 23.711162,24.982528 0 0 0 4.0449,23.44792 23.711162,24.982528 0 0 0 20.8913,9.17352 23.711162,24.982528 0 0 0 -4.0443,-23.44846 23.711162,24.982528 0 0 0 -20.8919,-9.17298 z"
         id="path5539"
         inkscape:connector-curvature="0" />
      <path
         style="opacity:1;fill:#242f0c;fill-opacity:1;stroke:none"
         d="m 1193.7234,291.20057 a 15.744092,15.744092 0 0 1 -5.8501,-13.83293 15.744092,15.744092 0 0 1 8.4363,-12.43687 15.744092,15.744092 0 0 1 5.8506,13.83297 15.744092,15.744092 0 0 1 -8.4368,12.43683 z"
         id="path5541"
         inkscape:connector-curvature="0" />
      <path
         inkscape:connector-curvature="0"
         id="path5543"
         d="m 1190.5291,247.23079 a 18.216187,18.216187 0 0 1 17.3114,1.51255 18.216187,18.216187 0 0 1 8.1451,15.36216 18.216187,18.216187 0 0 1 -17.3118,-1.51202 18.216187,18.216187 0 0 1 -8.1447,-15.36269 z"
         style="opacity:1;fill:#526134;fill-opacity:1;stroke:none" />
      <path
         style="opacity:1;fill:#6b8e23;fill-opacity:1;stroke:none"
         d="m 1188.8375,226.33627 a 16.737288,16.112793 43.650589 0 1 15.6491,1.65901 16.737288,16.112793 43.650589 0 1 7.6137,13.9787 16.737288,16.112793 43.650589 0 1 -15.6493,-1.65854 16.737288,16.112793 43.650589 0 1 -7.6135,-13.97917 z"
         id="path5545"
         inkscape:connector-curvature="0" />
      <path
         inkscape:connector-curvature="0"
         id="path5547"
         d="m 1185.0222,207.25694 a 16.737288,16.112793 35.386469 0 1 15.7251,-0.60758 16.737288,16.112793 35.386469 0 1 9.5439,12.73917 16.737288,16.112793 35.386469 0 1 -15.7253,0.60808 16.737288,16.112793 35.386469 0 1 -9.5437,-12.73967 z"
         style="opacity:1;fill:#bdb76b;fill-opacity:1;stroke:none" />
      <path
         style="opacity:1;fill:#82847f;fill-opacity:1;stroke:none"
         d="m 1125.8829,236.90304 a 16.737288,16.112793 51.453351 0 1 15.2789,3.76823 16.737288,16.112793 51.453351 0 1 5.6455,14.88293 16.737288,16.112793 51.453351 0 1 -15.2793,-3.76779 16.737288,16.112793 51.453351 0 1 -5.6451,-14.88337 z"
         id="path5549"
         inkscape:connector-curvature="0" />
      <path
         inkscape:connector-curvature="0"
         id="path5551"
         d="m 1051.1419,262.39314 a 13.973373,14.514949 8.5380524 0 1 6.629,11.92913 13.973373,14.514949 8.5380524 0 1 -6.1188,12.37401 13.973373,14.514949 8.5380524 0 1 -6.6295,-11.92909 13.973373,14.514949 8.5380524 0 1 6.1193,-12.37405 z"
         style="opacity:1;fill:#324a01;fill-opacity:1;stroke:none" />
      <path
         style="opacity:1;fill:#5b6842;fill-opacity:1;stroke:none"
         d="m 1116.0344,275.66708 a 16.112793,16.737288 8.5380524 0 1 7.644,13.75556 16.112793,16.737288 8.5380524 0 1 -7.0556,14.26856 16.112793,16.737288 8.5380524 0 1 -7.6445,-13.75552 16.112793,16.737288 8.5380524 0 1 7.0561,-14.2686 z"
         id="path5553"
         inkscape:connector-curvature="0" />
      <path
         inkscape:connector-curvature="0"
         id="path5555"
         d="m 1136.5391,382.09629 a 16.112793,16.737288 8.5380524 0 1 7.644,13.75556 16.112793,16.737288 8.5380524 0 1 -7.0556,14.26856 16.112793,16.737288 8.5380524 0 1 -7.6445,-13.75552 16.112793,16.737288 8.5380524 0 1 7.0561,-14.2686 z"
         style="opacity:1;fill:#82aa31;fill-opacity:1;stroke:none" />
      <path
         style="opacity:1;fill:#c1e870;fill-opacity:1;stroke:none"
         d="m 1176.0562,300.83757 a 16.737288,16.112793 88.371105 0 1 9.9521,12.19027 16.737288,16.112793 88.371105 0 1 -4.4262,15.28994 16.737288,16.112793 88.371105 0 1 -9.9526,-12.19014 16.737288,16.112793 88.371105 0 1 4.4267,-15.29007 z"
         id="path5557"
         inkscape:connector-curvature="0" />
      <path
         style="opacity:1;fill:#0b0c09;fill-opacity:1;stroke:none"
         d="m 1131.3463,485.13267 a 21.703955,21.770372 33.234486 0 0 19.7666,6.177 21.703955,21.770372 33.234486 0 0 15.9789,-13.27684 21.703955,21.770372 33.234486 0 0 -19.7667,-6.17777 21.703955,21.770372 33.234486 0 0 -15.9788,13.27761 z"
         id="path5559"
         inkscape:connector-curvature="0" />
      <path
         inkscape:connector-curvature="0"
         id="path5561"
         d="m 1142.717,442.99245 a 13.579744,13.579744 0 0 0 12.5312,3.28421 13.579744,13.579744 0 0 0 9.5739,-8.73853 13.579744,13.579744 0 0 0 -12.5313,-3.28462 13.579744,13.579744 0 0 0 -9.5738,8.73896 z"
         style="opacity:1;fill:#c7ea7f;fill-opacity:1;stroke:none" />
      <path
         inkscape:connector-curvature="0"
         id="path5563"
         d="m 1140.3956,463.47243 a 16.37177,17.294978 33.234486 0 0 15.0349,4.46935 16.37177,17.294978 33.234486 0 0 12.4898,-10.6813 16.37177,17.294978 33.234486 0 0 -15.035,-4.46997 16.37177,17.294978 33.234486 0 0 -12.4897,10.68192 z"
         style="opacity:1;fill:#3c4e18;fill-opacity:1;stroke:none" />
      <path
         style="opacity:1;fill:#bdb76b;fill-opacity:1;stroke:none"
         d="m 1142.5836,429.10178 a 13.579744,13.579744 0 0 0 12.9389,-0.63502 13.579744,13.579744 0 0 0 6.5038,-11.2125 13.579744,13.579744 0 0 0 -12.939,0.63465 13.579744,13.579744 0 0 0 -6.5037,11.21289 z"
         id="path5565"
         inkscape:connector-curvature="0" />
      <path
         style="opacity:1;fill:#55701e;fill-opacity:1;stroke:none"
         d="m 1330.4466,529.97181 a 13.579744,13.579744 0 0 1 -12.8957,-1.23164 13.579744,13.579744 0 0 1 -5.9794,-11.50077 13.579744,13.579744 0 0 1 12.896,1.23127 13.579744,13.579744 0 0 1 5.9791,11.50114 z"
         id="path5567"
         inkscape:connector-curvature="0" />
      <path
         style="opacity:1;fill:#bdd984;fill-opacity:1;stroke:none"
         d="m 1324.7295,548.73581 a 17.427747,16.497452 81.149204 0 1 -15.6583,-2.1528 17.427747,16.497452 81.149204 0 1 -7.0194,-14.99917 17.427747,16.497452 81.149204 0 1 15.6586,2.15227 17.427747,16.497452 81.149204 0 1 7.0191,14.9997 z"
         id="path5569"
         inkscape:connector-curvature="0" />
      <path
         inkscape:connector-curvature="0"
         id="path5571"
         d="m 1335.3253,519.87045 a 13.579744,13.579744 0 0 1 -10.9849,-6.86652 13.579744,13.579744 0 0 1 -0.2074,-12.9606 13.579744,13.579744 0 0 1 10.9853,6.86629 13.579744,13.579744 0 0 1 0.207,12.96082 z"
         style="opacity:1;fill:#1e2019;fill-opacity:1;stroke:none" />
      <path
         inkscape:connector-curvature="0"
         id="path5573"
         d="m 1327.0669,566.88096 a 21.17602,20.045641 65.139317 0 1 -19.0095,2.73307 21.17602,20.045641 65.139317 0 1 -13.2249,-15.16587 21.17602,20.045641 65.139317 0 1 19.0096,-2.73379 21.17602,20.045641 65.139317 0 1 13.2248,15.16659 z"
         style="opacity:1;fill:#83bc0e;fill-opacity:1;stroke:none" />
      <path
         style="opacity:1;fill:#37451c;fill-opacity:1;stroke:none"
         d="m 1341.4316,510.01556 a 13.579744,13.579744 0 0 1 -4.6595,-12.08745 13.579744,13.579744 0 0 1 7.6178,-10.48756 13.579744,13.579744 0 0 1 4.66,12.08747 13.579744,13.579744 0 0 1 -7.6183,10.48752 z"
         id="path5575"
         inkscape:connector-curvature="0" />
      <path
         inkscape:connector-curvature="0"
         id="path5577"
         d="m 1302.0367,474.54349 a 19.532654,19.532654 0 0 0 -11.4861,-14.67199 19.532654,19.532654 0 0 0 -18.5698,1.66708 19.532654,19.532654 0 0 0 11.4858,14.67255 19.532654,19.532654 0 0 0 18.5701,-1.66766 z"
         style="opacity:1;fill:#a8c963;fill-opacity:1;stroke:none" />
      <path
         inkscape:connector-curvature="0"
         id="path5579"
         d="m 1419.0834,504.78181 a 21.692219,21.626041 38.390819 0 1 -16.7513,12.04968 21.692219,21.626041 38.390819 0 1 -19.2799,-7.53579 21.692219,21.626041 38.390819 0 1 16.7511,-12.05042 21.692219,21.626041 38.390819 0 1 19.2801,7.53653 z"
         style="opacity:1;fill:#93b749;fill-opacity:1;stroke:none" />
      <path
         style="opacity:1;fill:#dbe5c7;fill-opacity:1;stroke:none"
         d="m 1063.189,355.32525 a 20.911288,20.911288 0 0 0 19.948,-0.12926 20.911288,20.911288 0 0 0 10.7408,-16.82417 20.911288,20.911288 0 0 0 -19.9483,0.12861 20.911288,20.911288 0 0 0 -10.7405,16.82482 z"
         id="path5581"
         inkscape:connector-curvature="0" />
      <path
         inkscape:connector-curvature="0"
         id="path5583"
         d="m 1059.0217,334.237 a 17.4716,17.4716 0 0 0 16.6667,-0.108 17.4716,17.4716 0 0 0 8.974,-14.05678 17.4716,17.4716 0 0 0 -16.667,0.10746 17.4716,17.4716 0 0 0 -8.9737,14.05732 z"
         style="opacity:1;fill:#e3f9b7;fill-opacity:1;stroke:none" />
      <path
         style="opacity:1;fill:#c4cdb1;fill-opacity:1;stroke:none"
         d="m 1055.6743,316.48533 a 16.24106,16.24106 0 0 0 15.4928,-0.10034 16.24106,16.24106 0 0 0 8.342,-13.06676 16.24106,16.24106 0 0 0 -15.4931,0.0999 16.24106,16.24106 0 0 0 -8.3417,13.06724 z"
         id="path5585"
         inkscape:connector-curvature="0" />
      <path
         inkscape:connector-curvature="0"
         id="path5587"
         d="m 1054.9165,300.48232 a 13.579744,13.579744 0 0 0 12.9541,-0.084 13.579744,13.579744 0 0 0 6.975,-10.92558 13.579744,13.579744 0 0 0 -12.9543,0.0835 13.579744,13.579744 0 0 0 -6.9748,10.92601 z"
         style="opacity:1;fill:#bdb76b;fill-opacity:1;stroke:none" />
      <path
         inkscape:connector-curvature="0"
         id="path5589"
         d="m 1111.6297,316.89184 a 13.579744,13.579744 0 0 1 -12.5933,-3.03774 13.579744,13.579744 0 0 1 -4.2978,-12.22897 13.579744,13.579744 0 0 1 12.5935,3.03738 13.579744,13.579744 0 0 1 4.2976,12.22933 z"
         style="opacity:1;fill:#f0e68c;fill-opacity:1;stroke:none" />
      <path
         style="opacity:1;fill:#93c431;fill-opacity:1;stroke:none"
         d="m 1133.2711,295.42315 a 13.579744,13.579744 0 0 1 -4.0344,-12.31017 13.579744,13.579744 0 0 1 8.1448,-10.08375 13.579744,13.579744 0 0 1 4.0349,12.31024 13.579744,13.579744 0 0 1 -8.1453,10.08368 z"
         id="path5591"
         inkscape:connector-curvature="0" />
      <path
         style="opacity:1;fill:#bdb76b;fill-opacity:1;stroke:none"
         d="m 1106.0647,333.82052 a 15.887577,15.887577 0 0 1 -14.7334,-3.554 15.887577,15.887577 0 0 1 -5.0283,-14.30724 15.887577,15.887577 0 0 1 14.7338,3.55357 15.887577,15.887577 0 0 1 5.0279,14.30767 z"
         id="path5593"
         inkscape:connector-curvature="0" />
      <path
         style="opacity:1;fill:#cfd5c3;fill-opacity:1;stroke:none"
         d="m 1152.0786,362.4028 a 18.249972,18.249972 0 0 0 17.0854,-3.34448 18.249972,18.249972 0 0 0 6.4834,-16.16862 18.249972,18.249972 0 0 0 -17.0857,3.34398 18.249972,18.249972 0 0 0 -6.4831,16.16912 z"
         id="path5595"
         inkscape:connector-curvature="0" />
      <path
         inkscape:connector-curvature="0"
         id="path5597"
         d="m 1144.629,346.24295 a 17.4716,17.4716 0 0 0 16.3567,-3.20184 17.4716,17.4716 0 0 0 6.2069,-15.47902 17.4716,17.4716 0 0 0 -16.357,3.20136 17.4716,17.4716 0 0 0 -6.2066,15.4795 z"
         style="opacity:1;fill:#617b2c;fill-opacity:1;stroke:none" />
      <path
         style="opacity:1;fill:#1e2907;fill-opacity:1;stroke:none"
         d="m 1139.0252,328.30294 a 16.103053,16.103053 0 0 0 15.0754,-2.95104 16.103053,16.103053 0 0 0 5.7207,-14.26655 16.103053,16.103053 0 0 0 -15.0757,2.95059 16.103053,16.103053 0 0 0 -5.7204,14.267 z"
         id="path5599"
         inkscape:connector-curvature="0" />
      <path
         inkscape:connector-curvature="0"
         id="path5601"
         d="m 1135.6817,310.56808 a 13.579744,13.579744 0 0 0 12.7132,-2.48863 13.579744,13.579744 0 0 0 4.8243,-12.03102 13.579744,13.579744 0 0 0 -12.7134,2.48825 13.579744,13.579744 0 0 0 -4.8241,12.0314 z"
         style="opacity:1;fill:#719030;fill-opacity:1;stroke:none" />
      <path
         inkscape:connector-curvature="0"
         id="path5603"
         d="m 1192.765,382.58688 a 17.523715,17.57734 20.140665 0 0 16.6744,1.24207 17.523715,17.57734 20.140665 0 0 10.1374,-13.36372 17.523715,17.57734 20.140665 0 0 -16.6746,-1.24265 17.523715,17.57734 20.140665 0 0 -10.1372,13.3643 z"
         style="opacity:1;fill:#a0ad87;fill-opacity:1;stroke:none" />
      <path
         style="opacity:1;fill:#dde1d4;fill-opacity:1;stroke:none"
         d="m 1188.8742,349.2307 a 13.579744,13.579744 0 0 0 12.9494,0.35992 13.579744,13.579744 0 0 0 7.3453,-10.68025 13.579744,13.579744 0 0 0 -12.9496,-0.3603 13.579744,13.579744 0 0 0 -7.3451,10.68064 z"
         id="path5605"
         inkscape:connector-curvature="0" />
      <path
         style="opacity:1;fill:#bdb76b;fill-opacity:1;stroke:none"
         d="m 1191.4592,364.8813 a 14.368538,15.178783 20.140665 0 0 13.7409,0.83117 14.368538,15.178783 20.140665 0 0 8.5528,-11.61392 14.368538,15.178783 20.140665 0 0 -13.741,-0.83168 14.368538,15.178783 20.140665 0 0 -8.5527,11.61443 z"
         id="path5607"
         inkscape:connector-curvature="0" />
      <path
         inkscape:connector-curvature="0"
         id="path5609"
         d="m 1186.0856,336.70782 a 13.579744,13.579744 0 0 0 12.4586,-3.54976 13.579744,13.579744 0 0 0 3.7946,-12.3944 13.579744,13.579744 0 0 0 -12.4589,3.54944 13.579744,13.579744 0 0 0 -3.7943,12.39473 z"
         style="opacity:1;fill:#465528;fill-opacity:1;stroke:none" />
      <path
         inkscape:connector-curvature="0"
         id="path5611"
         d="m 1053.4262,362.33131 a 20.911288,20.911288 0 0 1 -19.2448,5.25138 20.911288,20.911288 0 0 1 -14.8774,-13.30714 20.911288,20.911288 0 0 1 19.2449,-5.25209 20.911288,20.911288 0 0 1 14.8773,13.30785 z"
         style="opacity:1;fill:#151514;fill-opacity:1;stroke:none" />
      <path
         style="opacity:1;fill:#8aa15d;fill-opacity:1;stroke:none"
         d="m 1050.2916,339.43557 a 17.4716,17.4716 0 0 1 -16.0792,4.38759 17.4716,17.4716 0 0 1 -12.4302,-11.11827 17.4716,17.4716 0 0 1 16.0793,-4.38817 17.4716,17.4716 0 0 1 12.4301,11.11885 z"
         id="path5613"
         inkscape:connector-curvature="0" />
      <path
         inkscape:connector-curvature="0"
         id="path5615"
         d="m 1049.7076,316.5565 a 16.24106,16.24106 0 0 1 -14.9467,4.07861 16.24106,16.24106 0 0 1 -11.5548,-10.33521 16.24106,16.24106 0 0 1 14.9469,-4.0791 16.24106,16.24106 0 0 1 11.5546,10.33573 z"
         style="opacity:1;fill:#bdb76b;fill-opacity:1;stroke:none" />
      <path
         style="opacity:1;fill:#717763;fill-opacity:1;stroke:none"
         d="m 1050.5185,299.47672 a 13.579744,13.579744 0 0 1 -12.4975,3.41018 13.579744,13.579744 0 0 1 -9.6614,-8.64163 13.579744,13.579744 0 0 1 12.4976,-3.41071 13.579744,13.579744 0 0 1 9.6613,8.64209 z"
         id="path5617"
         inkscape:connector-curvature="0" />
      <path
         inkscape:connector-curvature="0"
         id="path5619"
         d="m 1056.2788,428.90805 a 19.94622,19.94622 0 0 0 8.3282,-17.10831 19.94622,19.94622 0 0 0 -9.8394,-16.29965 19.94622,19.94622 0 0 0 -8.3289,17.10834 19.94622,19.94622 0 0 0 9.8401,16.29962 z"
         style="opacity:1;fill:#88c015;fill-opacity:1;stroke:none" />
      <path
         inkscape:connector-curvature="0"
         id="path5621"
         d="m 1132.0734,536.03341 a 40.658521,40.452191 0 0 1 12.5555,36.51156 40.658521,40.452191 0 0 1 -23.993,30.34976 40.658521,40.452191 0 0 1 -12.5569,-36.51179 40.658521,40.452191 0 0 1 23.9944,-30.34953 z"
         style="opacity:1;fill:#101506;fill-opacity:1;stroke:none" />
      <path
         inkscape:connector-curvature="0"
         id="path5623"
         d="m 1129.9486,456.12107 a 17.57734,17.523715 72.204341 0 1 -16.7113,0.55877 17.57734,17.523715 72.204341 0 1 -9.5821,-13.76731 17.57734,17.523715 72.204341 0 1 16.7116,-0.55934 17.57734,17.523715 72.204341 0 1 9.5818,13.76788 z"
         style="opacity:1;fill:#7f9158;fill-opacity:1;stroke:none" />
      <path
         style="opacity:1;fill:#c0dc88;fill-opacity:1;stroke:none"
         d="m 1136.2398,437.81333 a 15.583149,15.583149 0 0 1 -14.8643,-0.19535 15.583149,15.583149 0 0 1 -7.9204,-12.59051 15.583149,15.583149 0 0 1 14.8645,0.19491 15.583149,15.583149 0 0 1 7.9201,12.59096 z"
         id="path5625"
         inkscape:connector-curvature="0" />
      <path
         style="opacity:1;fill:#728253;fill-opacity:1;stroke:none"
         d="m 1233.9275,195.42554 a 15.178783,14.368538 2.9041301 0 1 -4.614,12.96965 15.178783,14.368538 2.9041301 0 1 -14.0351,3.32402 15.178783,14.368538 2.9041301 0 1 4.6136,-12.97001 15.178783,14.368538 2.9041301 0 1 14.0355,-3.32366 z"
         id="path5627"
         inkscape:connector-curvature="0" />
      <path
         inkscape:connector-curvature="0"
         id="path5629"
         d="m 1134.6959,423.14929 a 13.579744,13.579744 0 0 1 -12.3029,-4.05655 13.579744,13.579744 0 0 1 -3.2843,-12.53928 13.579744,13.579744 0 0 1 12.3032,4.05624 13.579744,13.579744 0 0 1 3.284,12.5396 z"
         style="opacity:1;fill:#e1edc9;fill-opacity:1;stroke:none" />
      <path
         inkscape:connector-curvature="0"
         id="path5631"
         d="m 1106.7148,370.70441 a 21.173984,21.173984 0 0 1 18.6169,-7.83635 21.173984,21.173984 0 0 1 16.707,11.37391 21.173984,21.173984 0 0 1 -18.617,7.83706 21.173984,21.173984 0 0 1 -16.7069,-11.37462 z"
         style="opacity:1;fill:#bdb76b;fill-opacity:1;stroke:none" />
      <path
         style="opacity:1;fill:#2c2c2c;fill-opacity:1;stroke:none"
         d="m 1108.2392,346.17814 a 18.216187,18.216187 0 0 1 17.3277,-1.31234 18.216187,18.216187 0 0 1 10.5265,13.83946 18.216187,18.216187 0 0 1 -17.328,1.31292 18.216187,18.216187 0 0 1 -10.5262,-13.84004 z"
         id="path5633"
         inkscape:connector-curvature="0" />
      <path
         inkscape:connector-curvature="0"
         id="path5635"
         d="m 1114.8934,323.27071 a 14.172666,13.643861 58.196735 0 1 12.4736,4.68795 14.172666,13.643861 58.196735 0 1 3.2676,13.07659 14.172666,13.643861 58.196735 0 1 -12.474,-4.68761 14.172666,13.643861 58.196735 0 1 -3.2672,-13.07693 z"
         style="opacity:1;fill:#7c9745;fill-opacity:1;stroke:none" />
      <path
         style="opacity:1;fill:#fdfefb;fill-opacity:1;stroke:none"
         d="m 1115.6501,320.10856 a 11.334989,11.334989 0 0 0 10.6116,-2.07725 11.334989,11.334989 0 0 0 4.0269,-10.04227 11.334989,11.334989 0 0 0 -10.6119,2.07694 11.334989,11.334989 0 0 0 -4.0266,10.04258 z"
         id="path5637"
         inkscape:connector-curvature="0" />
      <path
         style="opacity:1;fill:#c9f66d;fill-opacity:1;stroke:none"
         d="m 1104.3945,402.81799 a 19.248527,19.248527 0 0 0 -12.4184,13.52602 19.248527,19.248527 0 0 0 4.6061,17.78652 19.248527,19.248527 0 0 0 12.419,-13.52585 19.248527,19.248527 0 0 0 -4.6067,-17.78669 z"
         id="path5639"
         inkscape:connector-curvature="0" />
      <path
         inkscape:connector-curvature="0"
         id="path5641"
         d="m 1087.9369,377.65405 a 11.604826,11.604826 0 0 0 10.7997,2.43355 11.604826,11.604826 0 0 0 7.9176,-7.74683 11.604826,11.604826 0 0 0 -10.7997,-2.43395 11.604826,11.604826 0 0 0 -7.9176,7.74723 z"
         style="opacity:1;fill:#a9a9a9;fill-opacity:1;stroke:none" />
      <path
         style="opacity:1;fill:#808000;fill-opacity:1;stroke:none"
         d="m 1075.5853,390.00865 a 18.712692,18.712692 0 0 0 15.2456,9.28605 18.712692,18.712692 0 0 0 16.091,-7.75397 18.712692,18.712692 0 0 0 -15.2455,-9.28667 18.712692,18.712692 0 0 0 -16.0911,7.75459 z"
         id="path5643"
         inkscape:connector-curvature="0" />
      <path
         style="opacity:1;fill:#d0d0cf;fill-opacity:1;stroke:none"
         d="m 1070.2287,444.45727 a 25.77995,25.77995 0 0 1 3.4932,24.34344 25.77995,25.77995 0 0 1 -18.5458,16.17387 25.77995,25.77995 0 0 1 -3.494,-24.34374 25.77995,25.77995 0 0 1 18.5466,-16.17357 z"
         id="path5645"
         inkscape:connector-curvature="0" />
      <path
         style="opacity:1;fill:#bdb76b;fill-opacity:1;stroke:none"
         d="m 1174.583,391.22115 a 18.433286,18.433286 0 0 1 -11.7148,-13.11405 18.433286,18.433286 0 0 1 4.6429,-16.97149 18.433286,18.433286 0 0 1 11.7153,13.11389 18.433286,18.433286 0 0 1 -4.6434,16.97165 z"
         id="path5647"
         inkscape:connector-curvature="0" />
      <path
         style="opacity:1;fill:#8ecf0a;fill-opacity:1;stroke:none"
         d="m 1411.924,558.12957 a 37.498456,37.498456 0 0 0 -19.1698,30.20148 37.498456,37.498456 0 0 0 14.9395,32.52651 37.498456,37.498456 0 0 0 19.1711,-30.2014 37.498456,37.498456 0 0 0 -14.9408,-32.52659 z"
         id="path5649"
         inkscape:connector-curvature="0" />
      <path
         inkscape:connector-curvature="0"
         id="path5651"
         d="m 1560.1243,539.25914 a 18.028155,18.028155 0 0 1 -8.2898,-15.06811 18.028155,18.028155 0 0 1 8.1467,-15.15783 18.028155,18.028155 0 0 1 8.2905,15.06811 18.028155,18.028155 0 0 1 -8.1474,15.15783 z"
         style="opacity:1;fill:#6b8e23;fill-opacity:1;stroke:none" />
      <path
         style="opacity:1;fill:#6b8a2b;fill-opacity:1;stroke:none"
         d="m 1242.1163,312.63555 a 24.588319,20.025822 0 0 1 2.9018,18.95688 24.588319,20.025822 0 0 1 -17.9707,12.29533 24.588319,20.025822 0 0 1 -2.9026,-18.95712 24.588319,20.025822 0 0 1 17.9715,-12.29509 z"
         id="path5653"
         inkscape:connector-curvature="0" />
      <path
         inkscape:connector-curvature="0"
         id="path5655"
         d="m 1224.2524,311.04792 a 15.691041,15.691041 0 0 1 -3.8156,14.47397 15.691041,15.691041 0 0 1 -14.2317,4.66747 15.691041,15.691041 0 0 1 3.8152,-14.47434 15.691041,15.691041 0 0 1 14.2321,-4.6671 z"
         style="opacity:1;fill:#6f8b34;fill-opacity:1;stroke:none" />
      <path
         style="opacity:1;fill:#b5cc84;fill-opacity:1;stroke:none"
         d="m 1177.5633,286.36959 a 13.497845,13.497845 0 0 1 -3.2824,12.45089 13.497845,13.497845 0 0 1 -12.2425,4.01508 13.497845,13.497845 0 0 1 3.282,-12.4512 13.497845,13.497845 0 0 1 12.2429,-4.01477 z"
         id="path5657"
         inkscape:connector-curvature="0" />
      <path
         inkscape:connector-curvature="0"
         id="path5659"
         d="m 1165.7041,276.42641 a 13.926398,13.926398 0 0 1 -6.8069,11.40877 13.926398,13.926398 0 0 1 -13.2842,0.48809 13.926398,13.926398 0 0 1 6.8067,-11.4092 13.926398,13.926398 0 0 1 13.2844,-0.48766 z"
         style="opacity:1;fill:#b3c887;fill-opacity:1;stroke:none" />
      <path
         style="opacity:1;fill:#638d0d;fill-opacity:1;stroke:none"
         d="m 1155.5485,266.62666 a 12.181926,12.181926 0 0 1 -10.3561,5.27232 12.181926,12.181926 0 0 1 -10.0607,-5.83037 12.181926,12.181926 0 0 1 10.3562,-5.27275 12.181926,12.181926 0 0 1 10.0606,5.8308 z"
         id="path5661"
         inkscape:connector-curvature="0" />
      <path
         inkscape:connector-curvature="0"
         id="path5663"
         d="m 1175.0788,278.67533 a 17.4716,17.4716 0 0 0 13.9808,-9.07367 17.4716,17.4716 0 0 0 -0.017,-16.6771 17.4716,17.4716 0 0 0 -13.9812,9.07335 17.4716,17.4716 0 0 0 0.017,16.67742 z"
         style="opacity:1;fill:#e3f8b8;fill-opacity:1;stroke:none" />
      <path
         style="opacity:1;fill:#bdb76b;fill-opacity:1;stroke:none"
         d="m 1162.7516,267.53265 a 13.579744,13.579744 0 0 0 10.8665,-7.05248 13.579744,13.579744 0 0 0 -0.013,-12.96222 13.579744,13.579744 0 0 0 -10.8669,7.05223 13.579744,13.579744 0 0 0 0.014,12.96247 z"
         id="path5665"
         inkscape:connector-curvature="0" />
      <path
         inkscape:connector-curvature="0"
         id="path5667"
         d="m 1152.1485,256.63975 a 13.579744,13.579744 0 0 0 10.8665,-7.05248 13.579744,13.579744 0 0 0 -0.013,-12.96222 13.579744,13.579744 0 0 0 -10.8669,7.05223 13.579744,13.579744 0 0 0 0.014,12.96247 z"
         style="opacity:1;fill:#bcda7e;fill-opacity:1;stroke:none" />
      <path
         inkscape:connector-curvature="0"
         id="path5669"
         d="m 1336.4645,238.83181 a 13.837616,13.837616 0 0 0 8.0014,10.499 13.837616,13.837616 0 0 0 13.1697,-1.00996 13.837616,13.837616 0 0 0 -8.0012,-10.49943 13.837616,13.837616 0 0 0 -13.1699,1.01039 z"
         style="opacity:1;fill:#627d2b;fill-opacity:1;stroke:none" />
      <path
         inkscape:connector-curvature="0"
         id="path5671"
         d="m 1384.3715,296.13103 a 15.625957,14.866514 0 0 0 11.3525,-9.1908 15.625957,14.866514 0 0 0 -1.9391,-14.07006 15.625957,14.866514 0 0 0 -11.353,9.19059 15.625957,14.866514 0 0 0 1.9396,14.07027 z"
         style="opacity:1;fill:#475231;fill-opacity:1;stroke:none" />
      <path
         style="opacity:1;fill:#94c82b;fill-opacity:1;stroke:none"
         d="m 1329.1253,197.83186 a 12.137077,12.137077 0 0 0 11.529,-1.06699 12.137077,12.137077 0 0 0 5.3742,-10.26323 12.137077,12.137077 0 0 0 -11.5292,1.06663 12.137077,12.137077 0 0 0 -5.374,10.26359 z"
         id="path5673"
         inkscape:connector-curvature="0" />
      <path
         inkscape:connector-curvature="0"
         id="path5675"
         d="m 1209.4054,309.4102 a 12.181926,12.181926 0 0 1 -10.3561,5.27232 12.181926,12.181926 0 0 1 -10.0607,-5.83037 12.181926,12.181926 0 0 1 10.3562,-5.27275 12.181926,12.181926 0 0 1 10.0606,5.8308 z"
         style="opacity:1;fill:#a9a9a9;fill-opacity:1;stroke:none" />
      <path
         inkscape:connector-curvature="0"
         id="path5677"
         d="m 1034.322,372.48624 a 15.318125,15.318125 0 0 0 9.1416,11.40016 15.318125,15.318125 0 0 0 14.5467,-1.47752 15.318125,15.318125 0 0 0 -9.1414,-11.40063 15.318125,15.318125 0 0 0 -14.5469,1.47799 z"
         style="opacity:1;fill:#dbfa9a;fill-opacity:1;stroke:none" />
      <path
         style="opacity:1;fill:#769e24;fill-opacity:1;stroke:none"
         d="m 1201.3226,285.1061 a 19.362096,19.362096 0 0 0 11.555,14.40979 19.362096,19.362096 0 0 0 18.387,-1.86758 19.362096,19.362096 0 0 0 -11.5547,-14.41039 19.362096,19.362096 0 0 0 -18.3873,1.86818 z"
         id="path5679"
         inkscape:connector-curvature="0" />
    </g>
  </g>
</svg>
