<?xml version="1.0" encoding="utf-8"?>
<!-- Generator: Adobe Illustrator 25.0.1, SVG Export Plug-In . SVG Version: 6.00 Build 0)  -->
<svg version="1.1" id="_x38_8ce59e9-c4b8-4d1d-9d7a-ce0190159aa8"
	 xmlns="http://www.w3.org/2000/svg" xmlns:xlink="http://www.w3.org/1999/xlink" x="0px" y="0px" viewBox="0 0 226.9 226.9"
	 style="enable-background:new 0 0 226.9 226.9;" xml:space="preserve">
<style type="text/css">
	.st0{opacity:0.5;}
	.st1{fill:url(#SVGID_1_);}
	.st2{fill:#F5F5F5;}
	.st3{fill:#D9E8CF;}
	.st4{fill:#333333;}
	.st5{opacity:0.1;enable-background:new    ;}
	.st6{fill:#BE7C5E;}
	.st7{fill:url(#SVGID_2_);}
	.st8{fill:#F55F44;}
	.st9{fill:#FDA57D;}
	.st10{fill:url(#SVGID_3_);}
	.st11{fill:url(#SVGID_4_);}
	.st12{fill:#72351C;}
	.st13{display:none;fill:#72351C;}
	.st14{fill:url(#SVGID_5_);}
	.st15{fill:#FDB797;}
	.st16{fill:url(#SVGID_6_);}
	.st17{fill:none;stroke:#333333;stroke-width:2;stroke-miterlimit:10;}
	.st18{fill:#858585;}
	.st19{fill:none;stroke:#333333;stroke-width:2;stroke-linecap:round;stroke-linejoin:round;}
	.st20{fill:url(#SVGID_7_);}
	.st21{fill:#FDD835;}
	.st22{fill:url(#SVGID_8_);}
	.st23{fill:url(#SVGID_9_);}
</style>
<g class="st0">
	
		<linearGradient id="SVGID_1_" gradientUnits="userSpaceOnUse" x1="113.22" y1="6.4059" x2="113.22" y2="238.1859" gradientTransform="matrix(1 0 0 -1 0 236.4759)">
		<stop  offset="0" style="stop-color:#808080;stop-opacity:0.25"/>
		<stop  offset="0.54" style="stop-color:#808080;stop-opacity:0.12"/>
		<stop  offset="1" style="stop-color:#808080;stop-opacity:0.1"/>
	</linearGradient>
	<circle class="st1" cx="113.2" cy="114.2" r="115.9"/>
</g>
<circle class="st2" cx="113.4" cy="113.4" r="113.4"/>
<path class="st3" d="M113.5,227.3c22.2,0,43.8-6.5,62.3-18.7c-4.2-22.8-20.1-24.2-20.1-24.2H68.1c0,0-15,1.2-19.7,22.2
	C67.5,220.2,90.2,227.4,113.5,227.3z"/>
<circle class="st8" cx="112.3" cy="111.1" r="54.8"/>
<path class="st5" d="M94.7,156.7h35.1l0,0v28.1c0,9.7-7.9,17.5-17.5,17.5l0,0l0,0c-9.7,0-17.5-7.9-17.5-17.5l0,0L94.7,156.7
	L94.7,156.7z"/>
<path class="st9" d="M98,155.4h28.4c1.9,0,3.4,1.5,3.4,3.4l0,0v24.7c0,9.7-7.9,17.5-17.5,17.5l0,0l0,0c-9.7,0-17.5-7.9-17.5-17.5
	l0,0v-24.7C94.7,156.9,96.2,155.4,98,155.4L98,155.4L98,155.4z"/>
<path class="st5" d="M94.7,169.9c11.3,4.2,23.8,4.3,35.1,0.1v-4.3H94.7V169.9z"/>
<circle class="st9" cx="112.3" cy="122" r="50.3"/>
<circle class="st8" cx="112.3" cy="55.4" r="20.2"/>
<circle class="st8" cx="112.3" cy="35.4" r="13.3"/>
<path class="st8" d="M103.5,66.5C93.6,62,89,50.6,92.9,40.6c-0.1,0.3-0.3,0.6-0.4,0.9c-4.6,10.2,0,22.2,10.2,26.8s22.2,0,26.8-10.2
	c0.1-0.3,0.2-0.6,0.4-0.9C125,66.8,113.4,70.9,103.5,66.5z"/>
<path class="st5" d="M76.5,76.2c0,0,21.2,43,81,18l-13.9-21.8l-24.7-8.9L76.5,76.2z"/>
<path class="st8" d="M76.5,75.6c0,0,21.2,43,81,18l-13.9-21.8l-24.7-8.9L76.5,75.6z"/>
<path class="st4" d="M92.9,59.9c13-1,26.1-1,39.2,0C132,59.9,103.1,62.6,92.9,59.9z"/>
<path class="st8" d="M115.3,21.3c-1,0-2,0-3,0.2h0.8c7.3,0.2,13.1,6.4,12.8,13.7c-0.2,6.2-4.7,11.5-10.8,12.6
	c7.3,0.1,13.3-5.8,13.4-13.2C128.5,27.4,122.7,21.4,115.3,21.3L115.3,21.3z"/>
<ellipse class="st9" cx="62" cy="121.9" rx="4.7" ry="8.8"/>
<ellipse class="st9" cx="162.6" cy="121.9" rx="4.7" ry="8.8"/>
<polygon class="st8" points="73.4,76.9 83.2,71.8 85.4,79.9 79.4,84 "/>
</svg>
