<?xml version="1.0" encoding="utf-8"?>
<!-- Generator: Adobe Illustrator 25.0.1, SVG Export Plug-In . SVG Version: 6.00 Build 0)  -->
<svg version="1.1" id="_x38_8ce59e9-c4b8-4d1d-9d7a-ce0190159aa8"
	 xmlns="http://www.w3.org/2000/svg" xmlns:xlink="http://www.w3.org/1999/xlink" x="0px" y="0px" viewBox="0 0 897.1 904.1"
	 style="enable-background:new 0 0 897.1 904.1;" xml:space="preserve">
<style type="text/css">
	.st0{opacity:0.5;}
	.st1{fill:url(#SVGID_1_);}
	.st2{fill:#F5F5F5;}
	.st3{fill:#D9E8CF;}
	.st4{fill:#333333;}
	.st5{opacity:0.1;enable-background:new    ;}
	.st6{fill:#BE7C5E;}
	.st7{fill:url(#SVGID_2_);}
	.st8{fill:#F55F44;}
	.st9{fill:#FDA57D;}
	.st10{fill:url(#SVGID_3_);}
	.st11{fill:url(#SVGID_4_);}
	.st12{fill:#72351C;}
	.st13{display:none;fill:#72351C;}
	.st14{fill:url(#SVGID_5_);}
	.st15{fill:#FDB797;}
	.st16{fill:url(#SVGID_6_);}
	.st17{fill:none;stroke:#333333;stroke-width:2;stroke-miterlimit:10;}
	.st18{fill:#858585;}
	.st19{fill:none;stroke:#333333;stroke-width:2;stroke-linecap:round;stroke-linejoin:round;}
	.st20{fill:url(#SVGID_7_);}
	.st21{fill:#FDD835;}
	.st22{fill:url(#SVGID_8_);}
	.st23{fill:url(#SVGID_9_);}
</style>
<g class="st0">
	
		<linearGradient id="SVGID_1_" gradientUnits="userSpaceOnUse" x1="154" y1="6013.9243" x2="154" y2="5782.124" gradientTransform="matrix(1 0 0 1 0 -5716.2798)">
		<stop  offset="0" style="stop-color:#808080;stop-opacity:0.25"/>
		<stop  offset="0.54" style="stop-color:#808080;stop-opacity:0.12"/>
		<stop  offset="1" style="stop-color:#808080;stop-opacity:0.1"/>
	</linearGradient>
	<circle class="st1" cx="154" cy="181.7" r="115.9"/>
</g>
<circle class="st2" cx="154" cy="181" r="113.4"/>
<path class="st3" d="M154.3,294.8c22.2,0,43.9-6.5,62.4-18.7c-4.2-22.8-20.1-24.1-20.1-24.1h-87.7c0,0-15,1.2-19.7,22.2
	C108.2,287.6,131,294.8,154.3,294.8z"/>
<circle class="st4" cx="153.1" cy="178.5" r="50.3"/>
<path class="st5" d="M135.4,224.1h35.1l0,0v28.1c0,9.7-7.9,17.5-17.5,17.5l0,0l0,0c-9.7,0-17.5-7.9-17.5-17.5l0,0L135.4,224.1
	L135.4,224.1z"/>
<path class="st6" d="M138.8,222.8h28.4c1.9,0,3.4,1.5,3.4,3.3l0,0v24.7c0,9.7-7.9,17.5-17.5,17.5l0,0c-9.7,0-17.5-7.9-17.5-17.5l0,0
	v-24.7C135.4,224.3,136.9,222.8,138.8,222.8z"/>
<path class="st5" d="M135.5,237.4c11.3,4.2,23.8,4.3,35.1,0.1v-4.3h-35.1V237.4z"/>
<circle class="st6" cx="153.1" cy="189.4" r="50.3"/>
<path class="st4" d="M122.6,168.7c0.6-2.2,1.3-4.6,3.3-5.7c1.5-0.9,3.5-0.8,5.2-0.7c13.9,0.8,27.7-2.4,41.2-5.7
	c7.7-1.9,16-4.2,21-10.4s-1.5-25.8-9.1-28.1c-5-1.5-10.8,1.3-15.5-0.9c-2.1-1-3.7-2.9-5.5-4.3c-3.7-3-8.5-4.2-13.2-5.3
	c-5.4-1.3-11.3-2.7-16.4-0.5c-4,1.7-6.9,5.2-10.7,7.2c-7.2,4-16,2.1-24.3,2.1c-2.8,0-6.1,0.6-7.2,3.1c-0.8,1.7-0.1,3.7-0.1,5.6
	c0.2,6-4.7,10.7-8.9,15S74.3,150.6,77,156c1,2.1,2.8,3.6,3.9,5.6c1.8,3.5,0.9,7.8,1.5,11.7c0.7,3,1.8,5.8,3.3,8.4
	c3.1,6,18.5,38.3,25.7,30.1c3.4-4,4-15.6,5.4-20.8C118.7,183.5,120.6,176.1,122.6,168.7z"/>
<ellipse class="st6" cx="117.3" cy="187.6" rx="4.7" ry="8.8"/>
<g class="st0">
	
		<linearGradient id="SVGID_2_" gradientUnits="userSpaceOnUse" x1="422.3" y1="6266.124" x2="422.3" y2="6034.3242" gradientTransform="matrix(1 0 0 1 0 -5716.2798)">
		<stop  offset="0" style="stop-color:#808080;stop-opacity:0.25"/>
		<stop  offset="0.54" style="stop-color:#808080;stop-opacity:0.12"/>
		<stop  offset="1" style="stop-color:#808080;stop-opacity:0.1"/>
	</linearGradient>
	<circle class="st7" cx="422.3" cy="433.9" r="115.9"/>
</g>
<circle class="st2" cx="422.5" cy="433.1" r="113.4"/>
<path class="st3" d="M422.6,547c22.2,0,43.8-6.5,62.3-18.7c-4.2-22.8-20.1-24.2-20.1-24.2h-87.6c0,0-15,1.2-19.7,22.2
	C376.6,539.9,399.3,547.1,422.6,547z"/>
<circle class="st8" cx="421.4" cy="430.8" r="54.8"/>
<path class="st5" d="M403.8,476.4h35.1l0,0v28.1c0,9.7-7.9,17.5-17.5,17.5l0,0l0,0c-9.7,0-17.5-7.9-17.5-17.5l0,0L403.8,476.4
	L403.8,476.4z"/>
<path class="st9" d="M407.1,475.1h28.4c1.9,0,3.4,1.5,3.4,3.4l0,0v24.7c0,9.7-7.9,17.5-17.5,17.5l0,0l0,0c-9.7,0-17.5-7.9-17.5-17.5
	l0,0v-24.7C403.8,476.6,405.3,475.1,407.1,475.1L407.1,475.1L407.1,475.1z"/>
<path class="st5" d="M403.8,489.6c11.3,4.2,23.8,4.3,35.1,0.1v-4.3h-35.1V489.6z"/>
<circle class="st9" cx="421.4" cy="441.7" r="50.3"/>
<circle class="st8" cx="421.4" cy="375.1" r="20.2"/>
<circle class="st8" cx="421.4" cy="355.1" r="13.3"/>
<path class="st8" d="M412.6,386.2c-9.9-4.5-14.5-15.9-10.6-25.9c-0.1,0.3-0.3,0.6-0.4,0.9c-4.6,10.2,0,22.2,10.2,26.8
	c10.2,4.6,22.2,0,26.8-10.2c0.1-0.3,0.2-0.6,0.4-0.9C434.1,386.5,422.5,390.6,412.6,386.2z"/>
<path class="st5" d="M385.6,395.9c0,0,21.2,43,81,18l-13.9-21.8l-24.7-8.9L385.6,395.9z"/>
<path class="st8" d="M385.6,395.3c0,0,21.2,43,81,18l-13.9-21.8l-24.7-8.9L385.6,395.3z"/>
<path class="st4" d="M402,379.6c13-1,26.1-1,39.2,0C441.1,379.6,412.2,382.3,402,379.6z"/>
<path class="st8" d="M424.4,341c-1,0-2,0-3,0.2h0.8c7.3,0.2,13.1,6.4,12.8,13.7c-0.2,6.2-4.7,11.5-10.8,12.6
	c7.3,0.1,13.3-5.8,13.4-13.2C437.6,347.1,431.8,341.1,424.4,341L424.4,341z"/>
<ellipse class="st9" cx="371.1" cy="441.6" rx="4.7" ry="8.8"/>
<ellipse class="st9" cx="471.7" cy="441.6" rx="4.7" ry="8.8"/>
<polygon class="st8" points="382.5,396.6 392.3,391.5 394.5,399.6 388.5,403.7 "/>
<g class="st0">
	
		<linearGradient id="SVGID_3_" gradientUnits="userSpaceOnUse" x1="422.2" y1="6008.2241" x2="422.2" y2="5776.4243" gradientTransform="matrix(1 0 0 1 0 -5716.2798)">
		<stop  offset="0" style="stop-color:#808080;stop-opacity:0.25"/>
		<stop  offset="0.54" style="stop-color:#808080;stop-opacity:0.12"/>
		<stop  offset="1" style="stop-color:#808080;stop-opacity:0.1"/>
	</linearGradient>
	<circle class="st10" cx="422.2" cy="176" r="115.9"/>
</g>
<circle class="st2" cx="422.2" cy="175.3" r="113.4"/>
<path class="st4" d="M378,176.3c0,0-12.9,63.4-19.9,59.9c0,0,67.7,58.5,127.5,0c0,0-10.5-44.6-25.7-59.9H378z"/>
<path class="st3" d="M422.5,289.1c22.2,0,43.9-6.5,62.4-18.7c-4.2-22.8-20.1-24.1-20.1-24.1h-87.7c0,0-15,1.2-19.7,22.2
	C376.5,282,399.2,289.1,422.5,289.1z"/>
<circle class="st4" cx="421.3" cy="172.8" r="50.3"/>
<path class="st5" d="M403.7,218.4h35.1l0,0v28.1c0,9.7-7.8,17.5-17.5,17.5l0,0c-9.7,0-17.5-7.9-17.5-17.5L403.7,218.4L403.7,218.4z"
	/>
<path class="st6" d="M407,217.1h28.4c1.9,0,3.4,1.5,3.4,3.3l0,0v24.7c0,9.7-7.8,17.5-17.5,17.5l0,0c-9.7,0-17.5-7.9-17.5-17.5l0,0
	v-24.7C403.7,218.6,405.2,217.2,407,217.1z"/>
<path class="st5" d="M403.7,231.7c11.3,4.2,23.8,4.3,35.1,0.1v-4.3h-35.1V231.7z"/>
<circle class="st6" cx="421.3" cy="183.7" r="50.3"/>
<path class="st4" d="M373.3,164.6h95.9c0,0-8.2-38.7-44.4-36.2S373.3,164.6,373.3,164.6z"/>
<ellipse class="st6" cx="372.1" cy="181.6" rx="4.7" ry="8.8"/>
<ellipse class="st6" cx="470.3" cy="181.6" rx="4.7" ry="8.8"/>
<path class="st5" d="M373.3,165.9h95.9c0,0-8.2-38.7-44.4-36.2S373.3,165.9,373.3,165.9z"/>
<g class="st0">
	
		<linearGradient id="SVGID_4_" gradientUnits="userSpaceOnUse" x1="698.5" y1="6007.7241" x2="698.5" y2="5775.9243" gradientTransform="matrix(1 0 0 1 0 -5716.2798)">
		<stop  offset="0" style="stop-color:#808080;stop-opacity:0.25"/>
		<stop  offset="0.54" style="stop-color:#808080;stop-opacity:0.12"/>
		<stop  offset="1" style="stop-color:#808080;stop-opacity:0.1"/>
	</linearGradient>
	<circle class="st11" cx="698.5" cy="175.5" r="115.9"/>
</g>
<circle class="st2" cx="698.7" cy="174.7" r="113.4"/>
<path class="st3" d="M698.8,288.6c22.2,0,43.9-6.5,62.4-18.7c-4.2-22.8-20.1-24.1-20.1-24.1h-87.7c0,0-15,1.2-19.7,22.2
	C652.7,281.4,675.5,288.6,698.8,288.6z"/>
<circle class="st12" cx="697.6" cy="172.3" r="54.8"/>
<path class="st5" d="M679.9,217.9H715l0,0V246c0,9.7-7.8,17.6-17.5,17.6l0,0l0,0c-9.7,0-17.5-7.9-17.5-17.5L679.9,217.9L679.9,217.9
	z"/>
<path class="st9" d="M683.2,216.6h28.4c1.9,0,3.3,1.5,3.3,3.4v24.7c0,9.7-7.9,17.5-17.5,17.5l0,0c-9.7,0-17.5-7.9-17.5-17.5V220
	C679.9,218.1,681.4,216.6,683.2,216.6L683.2,216.6z"/>
<path class="st5" d="M680,231.2c11.3,4.2,23.8,4.3,35.1,0.1V227H680V231.2z"/>
<circle class="st9" cx="697.6" cy="183.2" r="50.3"/>
<path class="st5" d="M661.8,137.5c0,0,21.2,43,81,18l-13.9-21.8l-24.7-8.9L661.8,137.5z"/>
<path class="st12" d="M661.8,136.9c0,0,21.2,43,81,18l-13.9-21.8l-24.7-8.9L661.8,136.9z"/>
<path class="st12" d="M661.6,134c1.4-4.4,3.9-8.4,7.2-11.7c9.9-9.8,26.1-11.8,34.4-23c1.8,3.1,0.7,7.1-2.4,8.9
	c-0.2,0.1-0.4,0.2-0.6,0.3c8,0,17.2-0.8,21.7-7.3c2.3,5.3,1.3,11.4-2.5,15.7c7.1,0.3,14.6,5.1,15.1,12.2c0.3,4.7-2.6,9.1-6.5,11.9
	c-3.9,2.8-8.5,3.9-13.1,4.9C701.4,148.8,652.8,161.2,661.6,134z"/>
<path class="st13" d="M747.9,183.7h-1.3l-25.9,23.1c-25-11.7-43.3,0-43.3,0l-27.3-22.2l-2.7,0.3c0.8,27.8,23.9,49.6,51.7,48.9
	C726.2,233.1,747.8,210.9,747.9,183.7L747.9,183.7z M697.5,215.6c-9.8,0-17.7-2-17.7-4.4c0-2.4,7.9-4.4,17.7-4.4s17.7,2,17.7,4.4
	C715.2,213.6,707.3,215.6,697.5,215.6L697.5,215.6z"/>
<ellipse class="st9" cx="647.3" cy="183.2" rx="4.7" ry="8.8"/>
<ellipse class="st9" cx="747.9" cy="183.2" rx="4.7" ry="8.8"/>
<g class="st0">
	
		<linearGradient id="SVGID_5_" gradientUnits="userSpaceOnUse" x1="153.1" y1="6258.5239" x2="153.1" y2="6026.7241" gradientTransform="matrix(1 0 0 1 0 -5716.2798)">
		<stop  offset="0" style="stop-color:#808080;stop-opacity:0.25"/>
		<stop  offset="0.54" style="stop-color:#808080;stop-opacity:0.12"/>
		<stop  offset="1" style="stop-color:#808080;stop-opacity:0.1"/>
	</linearGradient>
	<circle class="st14" cx="153.1" cy="426.3" r="115.9"/>
</g>
<circle class="st2" cx="153.4" cy="425.6" r="113.4"/>
<path class="st3" d="M153.5,539.4c22.2,0,43.8-6.5,62.4-18.7c-4.2-22.8-20.1-24.1-20.1-24.1H108c0,0-15,1.2-19.7,22.2
	C107.3,532.3,130.1,539.5,153.5,539.4z"/>
<circle class="st4" cx="152.3" cy="423.2" r="54.8"/>
<path class="st5" d="M134.6,468.8h35.1l0,0v28.1c0,9.7-7.9,17.5-17.5,17.5l0,0l0,0c-9.7,0-17.5-7.9-17.5-17.5l0,0L134.6,468.8
	L134.6,468.8z"/>
<path class="st15" d="M137.9,467.5h28.4c1.9,0,3.4,1.5,3.4,3.4l0,0v24.7c0,9.7-7.9,17.5-17.5,17.5l0,0l0,0
	c-9.7,0-17.5-7.8-17.6-17.5l0,0v-24.8C134.6,469,136.1,467.5,137.9,467.5L137.9,467.5L137.9,467.5z"/>
<path class="st5" d="M134.7,482c11.3,4.2,23.8,4.3,35.1,0.1v-4.3h-35.1V482z"/>
<circle class="st15" cx="152.3" cy="434.1" r="50.3"/>
<path class="st5" d="M116.4,388.3c0,0,21.2,43,81,18l-13.9-21.8l-24.7-8.9L116.4,388.3z"/>
<path class="st4" d="M116.4,387.7c0,0,21.2,43,81,18l-13.9-21.8l-24.7-8.9L116.4,387.7z"/>
<path class="st4" d="M116.3,384.8c1.4-4.4,3.9-8.4,7.2-11.7c9.9-9.8,26.1-11.8,34.4-23c1.8,3.1,0.7,7.1-2.4,8.9
	c-0.2,0.1-0.4,0.2-0.6,0.3c8,0,17.2-0.8,21.7-7.3c2.3,5.3,1.3,11.4-2.5,15.7c7.1,0.3,14.6,5.1,15.1,12.2c0.3,4.7-2.6,9.1-6.5,11.9
	c-3.9,2.8-8.5,3.9-13.1,5C156.1,399.6,107.5,412,116.3,384.8z"/>
<ellipse class="st15" cx="101.9" cy="434" rx="4.7" ry="8.8"/>
<ellipse class="st15" cx="202.5" cy="434" rx="4.7" ry="8.8"/>
<g class="st0">
	
		<linearGradient id="SVGID_6_" gradientUnits="userSpaceOnUse" x1="702.8" y1="6271.3242" x2="702.8" y2="6039.5239" gradientTransform="matrix(1 0 0 1 0 -5716.2798)">
		<stop  offset="0" style="stop-color:#808080;stop-opacity:0.25"/>
		<stop  offset="0.54" style="stop-color:#808080;stop-opacity:0.12"/>
		<stop  offset="1" style="stop-color:#808080;stop-opacity:0.1"/>
	</linearGradient>
	<circle class="st16" cx="702.8" cy="439.1" r="115.9"/>
</g>
<circle class="st2" cx="702.8" cy="438.5" r="113.4"/>
<path class="st3" d="M703.1,552.3c22.2,0,43.9-6.5,62.4-18.7c-4.2-22.8-20.1-24.2-20.1-24.2h-87.7c0,0-15,1.2-19.7,22.2
	C657,545.1,679.8,552.3,703.1,552.3z"/>
<path class="st5" d="M684.2,481.6h35.1l0,0v28.1c0,9.7-7.9,17.5-17.5,17.5l0,0c-9.7,0-17.5-7.8-17.6-17.5l0,0V481.6L684.2,481.6z"/>
<path class="st15" d="M687.6,480.3H716c1.9,0,3.3,1.5,3.3,3.4v24.7c0,9.7-7.9,17.5-17.5,17.5l0,0c-9.7,0-17.5-7.8-17.5-17.5l0,0
	v-24.7C684.2,481.8,685.7,480.3,687.6,480.3L687.6,480.3z"/>
<path class="st5" d="M684.3,494.9c11.3,4.2,23.8,4.3,35.1,0.1v-4.3h-35.1V494.9z"/>
<circle class="st15" cx="701.9" cy="446.9" r="50.3"/>
<ellipse class="st15" cx="652.7" cy="444.8" rx="4.7" ry="8.8"/>
<ellipse class="st15" cx="750.9" cy="444.8" rx="4.7" ry="8.8"/>
<path class="st17" d="M675.6,447.2h12.8c2.4,0,4.3,1.9,4.3,4.4v2.1c0,2.4-1.9,4.4-4.3,4.4h-12.8c-2.4,0-4.3-1.9-4.3-4.4v-2.1
	C671.3,449.1,673.2,447.2,675.6,447.2z"/>
<path class="st17" d="M728.2,457.9h-12.8c-2.4,0-4.3-1.9-4.3-4.4v-2.1c0-2.4,1.9-4.4,4.3-4.4h12.8c2.4,0,4.3,1.9,4.3,4.4v2.1
	C732.6,456,730.6,457.9,728.2,457.9z"/>
<path class="st17" d="M692,448.2c0,0,6.8-3.7,19.5,0"/>
<path class="st18" d="M736.7,410.5l12.3,28.7C749,439.2,764.1,420.1,736.7,410.5z"/>
<line class="st19" x1="732.6" y1="452.6" x2="751" y2="436.1"/>
<path class="st18" d="M667.2,410.5l-12.3,28.7C654.8,439.2,639.7,420.1,667.2,410.5z"/>
<line class="st19" x1="671.3" y1="452.6" x2="652.6" y2="436.1"/>
<g class="st0">
	
		<linearGradient id="SVGID_7_" gradientUnits="userSpaceOnUse" x1="154" y1="6519.0239" x2="154" y2="6287.2241" gradientTransform="matrix(1 0 0 1 0 -5716.2798)">
		<stop  offset="0" style="stop-color:#808080;stop-opacity:0.25"/>
		<stop  offset="0.54" style="stop-color:#808080;stop-opacity:0.12"/>
		<stop  offset="1" style="stop-color:#808080;stop-opacity:0.1"/>
	</linearGradient>
	<circle class="st20" cx="154" cy="686.8" r="115.9"/>
</g>
<circle class="st2" cx="154" cy="686.2" r="113.4"/>
<path class="st21" d="M216.7,696.4c0,41.8-27.3,88.3-60.9,88.3s-60.9-46.5-60.9-88.3s27.3-63,60.9-63S216.7,654.6,216.7,696.4z"/>
<path class="st3" d="M154.3,800c22.2,0,43.9-6.5,62.4-18.7c-4.2-22.8-20.1-24.2-20.1-24.2h-87.7c0,0-15,1.2-19.7,22.2
	C108.2,792.8,131,800,154.3,800z"/>
<path class="st5" d="M135.4,729.3h35.1l0,0v28.1c0,9.7-7.9,17.5-17.5,17.5l0,0c-9.7,0-17.5-7.9-17.5-17.5L135.4,729.3L135.4,729.3z"
	/>
<path class="st15" d="M138.8,728h28.4c1.9,0,3.3,1.5,3.4,3.3V756c0,9.7-7.9,17.5-17.5,17.5l0,0c-9.7,0-17.5-7.9-17.5-17.5v-24.7
	C135.4,729.5,136.9,728,138.8,728z"/>
<path class="st5" d="M135.5,742.6c11.3,4.2,23.8,4.3,35.1,0.1v-4.3h-35.1V742.6z"/>
<circle class="st15" cx="153.1" cy="694.6" r="50.3"/>
<ellipse class="st15" cx="103.8" cy="692.5" rx="4.7" ry="8.8"/>
<ellipse class="st15" cx="202.1" cy="692.5" rx="4.7" ry="8.8"/>
<path class="st5" d="M108.5,667.3c0,0,28.4,38.9,93.6,25.6c0,0,7.3-8.9-10.4-36.1S124.7,634.1,108.5,667.3z"/>
<path class="st21" d="M108.5,666.7c0,0,28.4,38.9,93.6,25.6c0,0,7.3-8.9-10.4-36.1S124.7,633.5,108.5,666.7z"/>
<g class="st0">
	
		<linearGradient id="SVGID_8_" gradientUnits="userSpaceOnUse" x1="429.3" y1="6532.3242" x2="429.3" y2="6300.5239" gradientTransform="matrix(1 0 0 1 0 -5716.2798)">
		<stop  offset="0" style="stop-color:#808080;stop-opacity:0.25"/>
		<stop  offset="0.54" style="stop-color:#808080;stop-opacity:0.12"/>
		<stop  offset="1" style="stop-color:#808080;stop-opacity:0.1"/>
	</linearGradient>
	<circle class="st22" cx="429.3" cy="700.1" r="115.9"/>
</g>
<circle class="st2" cx="429.5" cy="699.4" r="113.4"/>
<path class="st4" d="M491.9,710.6c0,37.7-27.1,56.3-62.3,56.3s-65.2-18.6-65.2-56.3c0-37.7,28.5-68.3,63.7-68.3
	S491.9,672.8,491.9,710.6z"/>
<path class="st3" d="M429.6,813.3c22.2,0,43.9-6.5,62.4-18.7c-4.2-22.8-20.1-24.2-20.1-24.2h-87.7c0,0-15,1.2-19.7,22.2
	C383.5,806.1,406.3,813.3,429.6,813.3z"/>
<path class="st5" d="M410.7,742.6h35.1l0,0v28.1c0,9.7-7.8,17.6-17.5,17.6c0,0,0,0-0.1,0l0,0c-9.7,0-17.5-7.9-17.5-17.5V742.6
	L410.7,742.6z"/>
<path class="st9" d="M414.1,741.3h28.4c1.9,0,3.4,1.5,3.4,3.3v24.7c0,9.7-7.9,17.5-17.5,17.5l0,0l0,0c-9.7,0-17.5-7.9-17.5-17.5
	v-24.7C410.7,742.8,412.2,741.3,414.1,741.3L414.1,741.3z"/>
<path class="st5" d="M410.8,755.8c11.3,4.2,23.8,4.3,35.1,0.1v-4.3h-35.1C410.8,751.6,410.8,755.8,410.8,755.8z"/>
<circle class="st9" cx="428.4" cy="707.9" r="50.3"/>
<path class="st5" d="M370.4,711.2c0,0,31.3-3.8,55-34.2c0,0,31.3,34.5,53.1,30.7c0,0,12.7-13.3,0-26.6c-12.7-13.3-22.5-30-39.2-27.8
	c-16.7,2.2-37.3,3.2-46.2,11.1C384.2,672.3,370.4,711.2,370.4,711.2z"/>
<path class="st4" d="M370.4,710.6c0,0,31.3-3.8,55-34.2c0,0,31.3,34.5,53.1,30.7c0,0,12.7-13.3,0-26.6c-12.7-13.3-22.5-30-39.2-27.8
	c-16.7,2.2-37.3,3.1-46.1,11.1S370.4,710.6,370.4,710.6z"/>
<ellipse class="st9" cx="378.1" cy="707.8" rx="4.7" ry="8.8"/>
<ellipse class="st9" cx="478.7" cy="707.8" rx="4.7" ry="8.8"/>
<g class="st0">
	
		<linearGradient id="SVGID_9_" gradientUnits="userSpaceOnUse" x1="707" y1="6532.3242" x2="707" y2="6300.5239" gradientTransform="matrix(1 0 0 1 0 -5716.2798)">
		<stop  offset="0" style="stop-color:#808080;stop-opacity:0.25"/>
		<stop  offset="0.54" style="stop-color:#808080;stop-opacity:0.12"/>
		<stop  offset="1" style="stop-color:#808080;stop-opacity:0.1"/>
	</linearGradient>
	<circle class="st23" cx="707" cy="700.1" r="115.9"/>
</g>
<circle class="st2" cx="707" cy="699.5" r="113.4"/>
<path class="st4" d="M662.8,700.5c0,0-12.9,63.4-19.9,59.9c0,0,67.7,58.5,127.5,0c0,0-10.5-44.6-25.7-59.9H662.8z"/>
<path class="st3" d="M707.3,813.3c22.2,0,43.9-6.5,62.4-18.7c-4.2-22.8-20.1-24.1-20.1-24.1h-87.7c0,0-15,1.2-19.7,22.2
	C661.3,806.1,684,813.3,707.3,813.3z"/>
<circle class="st4" cx="706.1" cy="697" r="50.3"/>
<path class="st5" d="M688.5,742.6h35.1l0,0v28.1c0,9.7-7.8,17.5-17.5,17.5l0,0c-9.7,0-17.5-7.9-17.5-17.5L688.5,742.6L688.5,742.6z"
	/>
<path class="st15" d="M691.8,741.3h28.4c1.9,0,3.4,1.5,3.4,3.4l0,0v24.7c0,9.7-7.8,17.5-17.5,17.5l0,0c-9.7,0-17.5-7.9-17.5-17.5
	l0,0v-24.7C688.5,742.8,690,741.3,691.8,741.3z"/>
<path class="st5" d="M688.6,755.8c11.3,4.2,23.8,4.3,35.1,0.1v-4.3h-35.1V755.8z"/>
<circle class="st15" cx="706.1" cy="707.9" r="50.3"/>
<path class="st4" d="M658.1,688.8H754c0,0-8.2-38.7-44.4-36.2C673.4,655.1,658.1,688.8,658.1,688.8z"/>
<ellipse class="st15" cx="656.9" cy="705.7" rx="4.7" ry="8.8"/>
<ellipse class="st15" cx="755.1" cy="705.7" rx="4.7" ry="8.8"/>
<path class="st5" d="M658.1,690.1H754c0,0-8.2-38.7-44.4-36.2C673.4,656.4,658.1,690.1,658.1,690.1z"/>
</svg>
