<?xml version="1.0" encoding="iso-8859-1"?>
<!-- Generator: Adobe Illustrator 19.0.0, SVG Export Plug-In . SVG Version: 6.00 Build 0)  -->
<svg version="1.1" id="Layer_1" xmlns="http://www.w3.org/2000/svg" xmlns:xlink="http://www.w3.org/1999/xlink" x="0px" y="0px"
	 viewBox="0 0 512 512" style="enable-background:new 0 0 512 512;" xml:space="preserve">
<g>
	<path style="fill:#0091EA;" d="M17.067,213.333v187.733c0,4.693,3.84,8.533,8.533,8.533h460.8c4.693,0,8.533-3.84,8.533-8.533
		V213.333H17.067z M153.6,358.4c0,4.693-3.84,8.533-8.533,8.533H59.733c-4.693,0-8.533-3.84-8.533-8.533v-34.133
		c0-4.693,3.84-8.533,8.533-8.533h85.333c4.693,0,8.533,3.84,8.533,8.533V358.4z M290.133,358.4c0,4.693-3.84,8.533-8.533,8.533
		h-85.333c-4.693,0-8.533-3.84-8.533-8.533v-34.133c0-4.693,3.84-8.533,8.533-8.533H281.6c4.693,0,8.533,3.84,8.533,8.533V358.4z
		 M426.667,384c-11.264,0-22.016-4.523-29.867-12.203c-7.851,7.68-18.603,12.203-29.867,12.203
		c-23.552,0-42.667-19.115-42.667-42.667c0-23.552,19.115-42.667,42.667-42.667c11.264,0,22.016,4.523,29.867,12.203
		c7.851-7.68,18.603-12.203,29.867-12.203c23.552,0,42.667,19.115,42.667,42.667C469.333,364.885,450.219,384,426.667,384z"/>
	<path style="fill:#0091EA;" d="M494.933,110.933V128H17.067v-17.067c0-4.693,3.84-8.533,8.533-8.533h460.8
		C491.093,102.4,494.933,106.24,494.933,110.933z"/>
</g>
<rect x="17.067" y="145.067" style="fill:#717272;" width="477.867" height="51.2"/>
<path d="M486.4,85.333H25.6c-14.08,0-25.6,11.52-25.6,25.6v290.133c0,14.08,11.52,25.6,25.6,25.6h460.8
	c14.08,0,25.6-11.52,25.6-25.6V110.933C512,96.853,500.48,85.333,486.4,85.333z M494.933,401.067c0,4.693-3.84,8.533-8.533,8.533
	H25.6c-4.693,0-8.533-3.84-8.533-8.533V213.333h477.867V401.067z M494.933,196.267H17.067v-51.2h477.867V196.267z M494.933,128
	H17.067v-17.067c0-4.693,3.84-8.533,8.533-8.533h460.8c4.693,0,8.533,3.84,8.533,8.533V128z"/>
<path d="M426.667,298.667c-11.264,0-22.016,4.523-29.867,12.203c-7.851-7.68-18.603-12.203-29.867-12.203
	c-23.552,0-42.667,19.115-42.667,42.667c0,23.552,19.115,42.667,42.667,42.667c11.264,0,22.016-4.523,29.867-12.203
	c7.851,7.68,18.603,12.203,29.867,12.203c23.552,0,42.667-19.115,42.667-42.667C469.333,317.781,450.219,298.667,426.667,298.667z
	 M426.667,366.933c-9.131,0-17.579-4.949-22.187-12.8c-1.536-2.645-4.949-4.267-8.021-4.267c0,0,0,0-0.085,0
	c-2.987,0-5.717,1.621-7.253,4.267c-4.608,7.851-13.056,12.8-22.187,12.8c-14.08,0-25.6-11.52-25.6-25.6
	c0-14.08,11.52-25.6,25.6-25.6c9.131,0,17.579,4.864,22.187,12.8c1.621,2.731,4.267,4.267,7.509,4.267
	c3.157,0.171,6.229-1.365,7.851-4.267c4.608-7.851,13.056-12.8,22.187-12.8c14.08,0,25.6,11.52,25.6,25.6
	C452.267,355.413,440.747,366.933,426.667,366.933z"/>
<path style="fill:#FFC107;" d="M452.267,341.333c0,14.08-11.52,25.6-25.6,25.6c-9.131,0-17.579-4.949-22.187-12.8
	c-1.536-2.645-4.949-4.267-8.021-4.267c0,0,0,0-0.085,0c-2.987,0-5.717,1.621-7.253,4.267c-4.608,7.851-13.056,12.8-22.187,12.8
	c-14.08,0-25.6-11.52-25.6-25.6c0-14.08,11.52-25.6,25.6-25.6c9.131,0,17.579,4.864,22.187,12.8
	c1.621,2.731,4.267,4.267,7.509,4.267c3.157,0.171,6.229-1.365,7.851-4.267c4.608-7.851,13.056-12.8,22.187-12.8
	C440.747,315.733,452.267,327.253,452.267,341.333z"/>
<path d="M281.6,315.733h-85.333c-4.693,0-8.533,3.84-8.533,8.533V358.4c0,4.693,3.84,8.533,8.533,8.533H281.6
	c4.693,0,8.533-3.84,8.533-8.533v-34.133C290.133,319.573,286.293,315.733,281.6,315.733z M273.067,349.867H204.8V332.8h68.267
	V349.867z"/>
<rect x="204.8" y="332.8" style="fill:#D50000;" width="68.267" height="17.067"/>
<path d="M145.067,315.733H59.733c-4.693,0-8.533,3.84-8.533,8.533V358.4c0,4.693,3.84,8.533,8.533,8.533h85.333
	c4.693,0,8.533-3.84,8.533-8.533v-34.133C153.6,319.573,149.76,315.733,145.067,315.733z M136.533,349.867H68.267V332.8h68.267
	V349.867z"/>
<rect x="68.267" y="332.8" style="fill:#D50000;" width="68.267" height="17.067"/>
<g>
	<path style="fill:#2979FF;" d="M469.333,213.333v162.133c0,4.693-3.84,8.533-8.533,8.533H17.067v17.067
		c0,4.693,3.84,8.533,8.533,8.533h460.8c4.693,0,8.533-3.84,8.533-8.533V213.333H469.333z"/>
	<path style="fill:#2979FF;" d="M486.4,102.4h-17.067V128h25.6v-17.067C494.933,106.24,491.093,102.4,486.4,102.4z"/>
</g>
<rect x="469.333" y="145.067" style="fill:#555656;" width="25.6" height="51.2"/>
<g>
</g>
<g>
</g>
<g>
</g>
<g>
</g>
<g>
</g>
<g>
</g>
<g>
</g>
<g>
</g>
<g>
</g>
<g>
</g>
<g>
</g>
<g>
</g>
<g>
</g>
<g>
</g>
<g>
</g>
</svg>
